<?xml version="1.0" standalone="no"?>
<!DOCTYPE svg PUBLIC "-//W3C//DTD SVG 20010904//EN"
 "http://www.w3.org/TR/2001/REC-SVG-20010904/DTD/svg10.dtd">
<svg version="1.0" xmlns="http://www.w3.org/2000/svg"
 width="1280.000000pt" height="731.000000pt" viewBox="0 0 1280.000000 731.000000"
 preserveAspectRatio="xMidYMid meet">
<metadata>
Created by potrace 1.15, written by Peter Selinger 2001-2017
</metadata>
<g transform="translate(0.000000,731.000000) scale(0.100000,-0.100000)"
fill="#000000" stroke="none">
<path d="M3352 7200 c-22 -22 -43 -40 -47 -40 -3 0 1 7 10 16 27 27 9 28 -57
1 -35 -14 -74 -28 -88 -31 -14 -3 -52 -25 -85 -49 -33 -24 -78 -50 -99 -57
-36 -12 -81 -45 -184 -137 -57 -51 -50 -66 11 -24 24 16 47 28 49 25 3 -2 11
2 18 11 16 19 30 19 30 0 0 -8 -16 -19 -38 -25 -42 -11 -121 -63 -136 -89 -6
-9 -31 -39 -58 -67 -26 -28 -48 -56 -48 -62 0 -7 28 9 63 34 61 46 150 94 175
94 28 0 8 -37 -37 -68 -27 -18 -68 -57 -92 -87 -24 -30 -49 -55 -55 -55 -20 0
-104 -71 -135 -112 -46 -64 -34 -72 20 -15 27 29 63 60 79 69 l29 17 -5 -27
c-7 -40 -102 -152 -129 -152 -6 0 -28 20 -48 44 -22 28 -68 62 -121 93 -47 26
-101 60 -120 75 -34 26 -104 45 -123 34 -5 -4 -12 -2 -16 4 -7 12 -51 14 -58
3 -2 -5 -3 -3 -1 3 1 7 -13 12 -36 12 -21 0 -51 7 -67 16 -16 8 -74 27 -128
42 -95 27 -110 28 -315 29 -118 0 -219 -4 -225 -8 -5 -5 -32 -21 -60 -35 -27
-15 -48 -30 -45 -33 3 -3 -1 -13 -9 -22 -8 -11 -9 -17 -2 -17 6 0 -6 -15 -27
-34 -53 -49 -35 -53 29 -7 30 21 70 46 89 56 31 16 29 12 -20 -32 -30 -28 -64
-66 -74 -84 -16 -28 -10 -24 39 24 38 38 61 54 65 46 6 -8 9 -8 14 0 4 6 12
11 18 11 6 0 -6 -18 -25 -39 -34 -38 -67 -91 -67 -108 0 -4 13 15 29 43 17 28
54 73 83 100 29 26 41 40 26 31 -16 -10 -28 -13 -28 -8 0 8 18 21 80 60 l25
15 -23 -26 c-13 -14 -24 -37 -26 -51 -1 -14 -22 -47 -45 -73 -41 -46 -87 -122
-79 -129 2 -2 25 24 50 59 30 41 73 81 121 114 42 29 78 52 81 52 21 0 -4 -38
-68 -102 -41 -40 -81 -91 -90 -112 -25 -61 -18 -66 12 -8 35 68 134 170 142
147 4 -13 13 -7 38 24 18 23 52 51 75 62 23 12 50 28 59 36 10 9 26 13 38 10
13 -3 18 -1 13 6 -4 7 0 8 11 4 10 -4 25 -7 34 -7 13 0 11 -5 -8 -20 -14 -11
-31 -20 -38 -20 -39 0 -259 -144 -294 -191 -13 -17 -22 -34 -22 -37 1 -4 -7
-24 -17 -44 -23 -44 -25 -70 -4 -42 11 14 14 15 15 4 0 -13 1 -13 10 0 22 35
64 80 76 80 6 0 19 11 28 25 9 13 24 29 35 34 11 6 -5 -25 -39 -77 -57 -86
-93 -163 -54 -117 16 19 16 19 10 -10 l-6 -30 22 30 c41 57 161 170 166 156 3
-8 17 0 43 25 22 21 39 35 39 32 0 -15 -31 -78 -39 -78 -19 0 -133 -92 -161
-131 -47 -65 -35 -70 21 -9 28 30 45 44 36 30 -8 -14 -19 -48 -25 -75 l-10
-50 49 55 c40 45 47 50 37 25 -7 -16 -24 -48 -37 -70 -14 -22 -26 -41 -27 -43
0 -1 -57 9 -125 22 -181 36 -441 38 -594 4 -66 -15 -229 -84 -285 -122 -60
-40 -150 -131 -150 -151 0 -9 4 -13 10 -10 6 4 8 -7 4 -27 -5 -32 -4 -32 12 7
23 53 82 135 98 135 7 0 21 9 31 20 10 11 23 20 28 20 6 0 -2 -13 -18 -30 -15
-16 -33 -28 -38 -27 -6 1 -11 -5 -12 -13 0 -8 -8 -30 -18 -47 -25 -47 -38 -83
-29 -83 5 0 16 17 26 38 36 76 119 168 160 177 6 1 19 5 29 10 32 14 24 1 -32
-50 -52 -47 -62 -46 -18 3 11 12 16 22 10 22 -18 0 -51 -44 -87 -119 -39 -79
-41 -85 -27 -77 5 4 12 0 14 -6 3 -7 6 -4 6 7 1 11 35 56 76 100 l74 80 -29
-61 c-17 -33 -32 -83 -35 -110 -6 -56 -5 -54 34 41 16 39 35 71 44 73 12 2 7
-14 -20 -66 -51 -100 -36 -110 27 -17 47 71 85 121 67 89 -12 -21 -45 -174
-37 -174 3 0 28 34 54 76 27 41 50 73 52 71 2 -2 -1 -19 -6 -38 -6 -18 -9 -56
-9 -84 1 -27 3 -42 6 -32 2 9 9 15 14 11 5 -3 22 23 38 58 16 35 50 85 75 112
25 27 46 47 46 44 0 -3 -13 -36 -28 -74 -19 -45 -29 -90 -31 -131 -1 -35 0
-63 2 -63 3 0 15 34 28 75 12 42 26 78 32 82 12 7 3 -57 -12 -84 -15 -29 -14
-46 3 -40 8 3 17 1 20 -6 2 -7 5 -4 5 5 1 15 61 81 68 74 2 -2 -4 -19 -12 -39
-34 -83 -12 -72 55 28 42 62 99 115 125 115 4 0 -16 -25 -44 -56 -28 -31 -56
-65 -62 -75 -18 -35 -1 -20 35 31 57 79 61 58 6 -24 -28 -41 -50 -79 -50 -85
0 -17 15 -13 35 9 25 27 30 18 10 -17 -13 -21 -8 -18 19 12 41 46 48 36 11
-15 -14 -19 -25 -37 -25 -41 0 -10 26 -5 42 9 8 6 18 9 21 5 4 -3 7 3 7 13 0
26 97 114 125 114 16 0 -10 -41 -55 -89 -28 -29 -50 -58 -50 -65 1 -11 70 63
70 75 0 4 6 9 14 12 11 4 11 -5 0 -56 -16 -73 -18 -120 -5 -113 5 4 11 0 14
-6 2 -7 7 3 12 22 4 19 22 55 40 80 32 44 75 88 75 78 0 -21 -28 -79 -52 -106
-15 -18 -28 -38 -28 -45 1 -7 10 -1 20 12 l20 23 0 -24 c0 -14 -9 -33 -21 -44
-12 -10 -30 -32 -42 -48 l-20 -28 21 11 c11 6 24 16 27 21 10 17 23 11 28 -12
3 -20 6 -18 21 16 9 21 20 36 22 33 3 -3 0 -15 -6 -27 -6 -11 -10 -31 -8 -43
3 -19 7 -17 36 22 l32 44 2 -44 c0 -24 0 -55 -1 -69 -1 -20 1 -22 9 -9 5 9 26
29 47 45 l38 29 -23 -30 c-39 -53 -47 -61 -65 -68 -10 -4 -31 0 -47 8 -16 8
-33 14 -37 13 -14 -4 -87 13 -108 25 -11 6 -27 13 -35 14 -8 1 -28 4 -45 7
-16 3 -46 9 -65 12 -19 3 -39 9 -45 12 -5 4 -106 8 -223 9 -205 3 -214 2 -260
-20 -26 -13 -81 -34 -122 -46 -127 -37 -210 -69 -274 -105 -65 -37 -250 -195
-261 -224 -4 -11 1 -9 19 7 27 25 34 15 16 -20 -6 -10 -7 -19 -2 -19 12 0 41
33 39 44 -1 5 7 10 17 12 10 1 26 10 35 20 15 15 15 16 -1 11 -28 -10 -22 -3
30 32 l47 33 -35 -31 c-20 -19 -28 -31 -20 -31 8 -1 -6 -20 -31 -43 -49 -44
-104 -119 -64 -86 41 33 48 34 41 5 -9 -38 -1 -32 23 17 12 24 32 54 46 67
l25 24 -11 -33 c-14 -39 -6 -52 12 -19 6 12 21 34 31 48 l20 25 -8 -30 -7 -30
43 40 c36 34 42 36 37 18 -3 -13 -4 -23 -2 -23 1 0 22 26 46 57 23 31 44 52
47 45 2 -6 -7 -26 -21 -44 -39 -53 -42 -65 -9 -34 18 17 32 26 32 20 1 -5 7 3
15 17 8 15 24 29 36 32 20 5 19 2 -8 -26 -40 -43 -83 -108 -83 -127 0 -8 15 8
34 35 37 55 63 81 73 72 3 -3 15 8 27 25 11 17 36 42 54 56 31 23 32 24 32 4
0 -11 -12 -28 -27 -38 -34 -22 -89 -79 -114 -119 -30 -48 -22 -48 23 1 39 43
166 139 174 131 2 -2 -14 -17 -36 -34 -39 -30 -95 -96 -119 -140 -21 -41 -3
-24 38 35 37 52 114 121 183 164 28 17 28 17 28 -5 0 -17 -15 -34 -52 -60 -54
-36 -114 -101 -138 -147 l-13 -25 28 25 29 25 -21 -30 c-20 -30 -35 -65 -29
-65 2 0 23 29 46 65 45 69 78 99 175 158 85 52 90 46 10 -12 -64 -47 -133
-120 -157 -165 -6 -12 23 11 63 50 74 70 224 172 236 160 4 -3 4 -7 2 -9 -141
-88 -234 -170 -269 -237 -12 -24 -12 -24 6 -10 10 9 39 33 62 54 59 51 159
114 268 170 117 59 135 60 25 1 -138 -75 -240 -155 -302 -239 -47 -63 -34 -62
39 2 37 32 103 82 148 110 95 59 224 125 231 118 2 -2 21 7 40 20 37 25 63 31
63 14 0 -5 -22 -21 -50 -34 -117 -56 -265 -188 -309 -274 -31 -60 -18 -52 23
16 56 92 167 186 295 252 36 18 49 20 63 11 15 -9 18 -8 18 8 0 12 11 23 32
30 74 26 35 -30 -51 -73 -37 -19 -81 -46 -97 -59 -16 -13 -68 -51 -115 -85
-83 -59 -149 -122 -149 -143 0 -6 12 -1 27 10 36 29 39 20 8 -28 -45 -67 -23
-65 30 4 28 35 74 83 104 106 56 44 200 111 321 150 63 21 72 22 86 8 14 -14
10 -18 -33 -34 -126 -46 -261 -138 -351 -238 -69 -76 -72 -101 -6 -51 39 30
42 25 15 -20 -10 -17 -22 -42 -25 -56 -4 -14 13 9 37 50 l45 76 99 46 c54 26
125 58 158 71 89 36 287 99 293 92 8 -7 6 -8 -102 -43 -54 -18 -135 -54 -180
-80 -91 -53 -215 -170 -233 -219 -6 -18 -9 -33 -7 -33 2 0 40 27 84 59 70 52
290 171 316 171 5 0 -20 -17 -56 -37 -125 -70 -207 -141 -254 -217 -15 -24 -6
-18 40 25 88 84 224 170 347 219 32 12 61 20 64 16 4 -3 13 0 22 7 19 16 87
36 141 43 31 4 41 1 49 -14 9 -16 2 -19 -61 -31 -199 -37 -412 -151 -508 -272
-55 -70 -50 -75 13 -14 71 69 160 128 271 181 148 70 366 125 366 93 0 -10
-31 -22 -90 -38 -49 -13 -117 -36 -150 -52 -123 -58 -277 -155 -334 -211 -63
-61 -70 -89 -11 -44 37 28 45 25 20 -8 -8 -11 -15 -24 -15 -30 0 -5 17 15 38
45 33 49 48 60 152 111 141 71 311 132 321 116 5 -8 15 -6 33 5 34 23 39 21
21 -6 -8 -13 -37 -31 -65 -41 -28 -10 -49 -20 -47 -23 3 -2 22 3 42 11 46 20
46 20 38 0 -3 -9 -15 -20 -27 -24 -21 -9 -21 -9 -1 -9 12 -1 27 5 34 12 11 10
12 7 7 -17 -6 -26 -5 -28 8 -17 9 8 16 10 16 5 -1 -18 -36 -52 -75 -73 -22
-12 -51 -28 -65 -35 -14 -8 -71 -24 -126 -38 -83 -19 -100 -21 -92 -8 16 24
97 82 173 122 85 45 79 50 -7 7 -76 -39 -158 -98 -186 -136 -12 -15 -22 -23
-22 -16 0 21 94 104 175 154 43 27 75 49 70 49 -38 0 -222 -140 -252 -191 -10
-17 -44 -45 -78 -63 -84 -47 -222 -147 -273 -199 -31 -31 -41 -48 -36 -61 6
-17 9 -16 26 5 14 19 17 20 11 5 -4 -13 -3 -17 5 -12 6 4 5 -5 -3 -21 -8 -15
-15 -34 -15 -40 0 -25 -19 -12 -85 60 -63 67 -124 146 -312 404 -73 100 -112
133 -155 133 -65 0 -82 -79 -43 -195 76 -228 313 -534 559 -722 374 -288 770
-406 1163 -348 57 9 141 27 186 40 45 13 84 22 86 19 2 -2 -4 -104 -13 -226
l-17 -223 -48 -80 c-81 -136 -121 -211 -156 -296 -27 -67 -46 -95 -103 -153
-39 -39 -78 -87 -88 -106 -9 -19 -29 -51 -45 -70 -25 -33 -76 -145 -137 -304
l-26 -68 -110 2 c-61 2 -524 2 -1028 2 l-918 -2 0 -1035 0 -1035 6400 0 6400
0 0 1035 0 1035 -1241 0 c-1102 0 -1240 2 -1229 15 7 8 19 15 28 15 8 0 12 3
9 7 -4 4 5 19 20 35 22 23 33 27 62 23 35 -5 35 -5 8 6 -22 9 -26 14 -16 25 6
8 21 14 33 15 11 0 15 3 8 6 -22 9 -1 23 26 17 23 -4 24 -4 9 6 -23 15 -12 32
16 25 12 -2 16 -2 10 1 -7 3 -13 9 -13 14 0 15 34 20 70 10 32 -9 33 -8 16 5
-11 8 -25 15 -30 15 -32 0 181 108 294 150 133 49 314 79 473 81 l92 0 30 36
c26 32 27 35 7 24 -12 -6 -28 -21 -35 -31 -9 -16 -23 -20 -69 -20 -32 0 -58 2
-58 5 0 12 35 75 41 75 5 0 1 -16 -7 -35 -8 -19 -10 -35 -5 -35 5 0 13 10 17
22 7 22 34 56 34 42 0 -4 9 1 19 10 11 10 25 15 31 11 7 -4 1 -14 -15 -27 -14
-10 -25 -29 -25 -41 0 -19 3 -18 19 10 11 17 28 36 38 42 16 9 16 12 3 21 -21
14 -36 12 -50 -4 -6 -8 -18 -12 -26 -9 -13 5 -12 9 3 27 16 19 16 19 -8 -2
-14 -12 -32 -22 -41 -22 -16 0 -45 -56 -40 -78 2 -8 -12 -12 -48 -12 -50 0
-50 1 -39 22 7 13 14 34 15 47 3 26 24 55 24 32 0 -7 -5 -21 -10 -32 -8 -13
-7 -19 0 -19 7 0 9 -8 5 -20 -9 -29 9 -25 26 6 34 64 202 188 271 199 26 5 36
10 28 15 -9 5 2 12 31 19 l44 11 -43 -4 c-48 -5 -196 -76 -274 -131 -41 -30
-48 -32 -60 -18 -29 35 144 144 262 165 70 12 66 24 -5 14 -53 -8 -186 -72
-258 -123 -29 -21 -61 -43 -72 -49 -11 -6 -29 -30 -41 -52 -13 -23 -18 -39
-12 -36 7 5 9 0 6 -14 -4 -12 0 -23 7 -26 8 -3 15 7 19 29 4 19 12 37 18 41 8
5 9 1 5 -10 -4 -10 -7 -31 -7 -47 0 -27 -2 -29 -41 -29 -28 0 -38 4 -33 11 4
7 8 30 9 53 2 36 10 48 72 106 81 77 159 124 228 141 28 7 64 18 80 25 67 28
270 70 455 94 l75 9 -85 -4 c-127 -6 -349 -48 -477 -89 -31 -10 -30 11 1 57
13 19 22 37 20 40 -7 7 28 77 39 77 11 0 -2 -41 -21 -62 -10 -12 -11 -18 -3
-18 8 0 7 -10 -3 -35 -13 -31 -13 -35 0 -35 7 0 14 6 14 13 0 16 40 81 46 74
3 -3 -2 -21 -10 -41 -18 -43 -3 -49 18 -7 14 27 66 70 66 54 0 -5 -7 -20 -14
-35 -20 -38 -2 -36 21 2 9 17 22 30 28 30 5 0 4 4 -2 8 -9 6 -6 18 13 46 32
47 42 41 15 -8 -12 -20 -18 -36 -16 -36 3 0 -1 -13 -10 -30 -9 -16 -13 -30
-11 -30 3 0 25 21 50 47 50 53 69 52 38 -2 -26 -43 -14 -46 16 -5 27 36 51 41
28 5 -9 -14 -12 -25 -7 -25 6 0 18 14 28 30 9 17 20 30 24 30 4 0 9 9 12 20 3
11 13 20 24 20 10 0 25 5 33 11 12 8 9 9 -12 5 -33 -8 -37 1 -6 13 44 16 47
-10 7 -63 -21 -28 -37 -52 -35 -54 5 -4 56 47 56 57 0 16 83 81 103 81 3 0
-14 -19 -37 -43 -22 -23 -45 -41 -50 -38 -5 2 -6 -1 -2 -8 5 -7 0 -18 -10 -26
-11 -8 -15 -15 -10 -15 13 0 66 47 59 54 -6 6 24 19 72 30 30 7 30 7 -15 -40
l-45 -48 50 40 c28 23 55 44 62 47 16 10 44 -3 36 -16 -4 -7 0 -8 13 -2 10 5
38 9 61 10 22 0 39 3 36 8 -2 4 24 7 58 7 34 0 60 3 57 6 -3 3 -54 6 -112 7
-58 0 -106 4 -106 7 0 3 19 14 43 23 23 10 31 15 17 13 -14 -2 -43 -1 -65 3
l-40 8 30 13 c17 7 44 16 60 20 25 7 21 8 -25 8 -61 0 -96 -10 -152 -45 -37
-23 -98 -31 -98 -14 0 13 72 69 118 92 35 17 36 18 10 19 -15 0 -30 -5 -33
-11 -4 -6 -14 -8 -22 -5 -19 8 -81 -25 -112 -58 -16 -17 -35 -26 -55 -26 l-30
0 30 31 c40 43 104 86 145 97 21 7 26 11 13 11 -33 2 -121 -48 -170 -95 -25
-25 -50 -44 -56 -42 -17 6 79 105 124 127 24 12 32 19 18 15 -56 -15 -74 -27
-132 -84 -33 -33 -64 -60 -69 -60 -6 0 -7 -4 -4 -10 3 -6 -1 -7 -9 -4 -32 12
75 136 149 173 22 11 34 20 27 21 -44 1 -152 -83 -204 -158 -16 -24 -32 -41
-35 -38 -9 9 86 144 120 171 36 28 30 32 -12 10 -41 -21 -112 -104 -145 -169
-15 -32 -30 -55 -33 -52 -8 8 55 116 99 169 47 56 30 62 -33 11 l-44 -36 48
46 c52 49 52 56 1 28 -40 -21 -111 -106 -144 -169 -25 -50 -37 -63 -57 -63
-13 0 41 146 95 253 2 4 -5 7 -15 7 -41 0 -124 -116 -163 -230 -21 -60 -50
-108 -50 -84 0 6 18 84 40 173 22 89 40 164 40 167 0 11 -20 1 -46 -23 -16
-15 -35 -28 -43 -29 -14 -3 -48 -31 -88 -74 -19 -21 -22 -22 -16 -5 4 11 15
35 26 53 24 41 10 41 -31 -1 -32 -33 -116 -208 -155 -325 -19 -57 -37 -81 -37
-49 0 46 78 241 117 295 31 42 15 41 -38 -4 -43 -36 -85 -94 -108 -152 -8 -18
-16 -31 -18 -28 -4 4 11 96 23 139 7 22 -22 23 -34 1 -5 -10 -12 -12 -15 -7
-7 11 -18 9 -152 -21 -95 -22 -99 -21 -78 10 22 35 88 62 169 70 35 4 67 11
70 15 3 5 1 9 -4 9 -26 0 -132 -23 -166 -36 -21 -8 -41 -13 -43 -10 -10 10 9
26 30 26 16 0 18 3 9 9 -18 11 21 27 113 46 65 13 66 14 16 9 -48 -4 -89 -16
-143 -39 -15 -6 -18 -2 -18 19 0 16 6 26 15 26 8 0 15 4 15 9 0 12 154 61 194
61 19 0 37 4 40 8 3 5 -9 7 -27 5 -26 -2 -24 0 13 11 33 10 38 14 20 15 -14 0
-42 -4 -63 -10 -22 -6 -41 -8 -44 -6 -6 6 47 23 120 37 32 7 56 14 53 17 -3 3
-33 0 -67 -6 -33 -7 -63 -10 -66 -8 -2 3 22 10 54 17 32 6 72 14 88 17 17 3
24 8 17 11 -15 5 -139 -17 -162 -29 -12 -5 -16 -2 -17 14 -2 14 1 17 6 9 6
-10 14 -10 37 -2 16 6 67 18 114 26 l85 14 -70 -5 c-47 -3 -65 -1 -55 5 8 5
27 10 43 10 15 0 27 5 27 10 0 6 11 10 25 10 14 0 25 4 25 9 0 5 12 12 28 14
19 4 16 5 -13 5 -68 0 -76 2 -70 13 4 6 13 8 21 5 7 -3 16 -1 19 3 3 5 33 13
67 17 62 8 62 8 23 14 l-40 6 40 8 c22 4 68 12 102 18 35 5 60 14 57 19 -3 5
0 9 5 9 6 0 11 5 11 10 0 6 -19 10 -42 11 -37 1 -39 2 -18 9 l25 8 -25 1 c-14
1 -52 -6 -84 -14 -33 -9 -61 -13 -64 -10 -3 3 1 5 8 5 7 0 11 2 8 5 -3 3 -31
-6 -62 -21 -60 -30 -87 -25 -46 8 14 11 24 24 23 28 -1 5 4 11 13 14 10 4 13
2 8 -7 -4 -6 3 -2 14 10 13 13 45 26 79 33 81 16 88 21 22 16 -37 -3 -84 -17
-133 -39 -41 -20 -78 -32 -81 -27 -10 16 90 70 131 71 30 0 34 2 19 8 -19 8
-18 9 5 14 14 2 -2 2 -34 -1 -46 -4 -57 -2 -51 8 5 9 2 10 -12 6 -14 -4 -19
-1 -20 14 -1 11 3 20 8 20 6 0 7 -4 4 -10 -9 -15 7 -12 29 5 11 8 36 15 55 16
20 1 47 5 61 9 22 7 21 8 -13 9 -47 1 -41 17 10 25 21 4 58 10 83 14 l45 8
-34 7 c-55 11 -22 32 50 32 59 -1 80 10 37 18 -13 2 3 5 34 6 31 0 59 5 62 10
4 5 -21 8 -56 5 l-63 -3 50 10 c28 6 70 10 95 10 l45 0 -40 10 c-22 6 -55 7
-74 4 -55 -10 -21 21 40 36 44 11 47 14 28 21 -17 7 -38 -1 -92 -32 -39 -22
-72 -38 -74 -36 -7 6 74 66 111 81 41 17 50 30 10 15 -47 -18 -69 -32 -116
-76 -58 -54 -80 -57 -40 -6 40 50 71 77 107 96 21 11 25 16 12 16 -31 0 -100
-57 -137 -112 -35 -53 -51 -70 -58 -63 -9 8 56 111 94 151 23 23 34 40 25 37
-35 -12 -90 -78 -120 -142 -21 -45 -40 -72 -56 -79 -24 -11 -25 -11 -19 16 11
46 71 156 102 190 35 38 26 42 -15 8 -36 -30 -76 -104 -98 -178 -9 -32 -20
-58 -25 -58 -19 0 41 154 80 209 37 51 23 54 -20 5 -36 -42 -61 -96 -79 -172
-16 -66 -36 -82 -26 -21 7 42 46 184 61 223 14 37 -54 -15 -87 -65 -28 -44
-69 -177 -69 -225 0 -13 -5 -26 -11 -30 -13 -7 -6 45 18 136 18 72 69 180 84
180 7 0 9 3 6 6 -14 14 -58 -30 -86 -84 -29 -58 -49 -139 -54 -221 -1 -25 -7
-46 -13 -48 -22 -7 22 227 57 300 22 47 4 45 -29 -3 -34 -50 -53 -124 -59
-232 -4 -67 -10 -98 -18 -98 -9 0 -6 41 11 158 13 86 26 167 29 180 6 24 -6
29 -24 9 -19 -24 -42 -134 -50 -249 l-8 -113 -2 136 c-1 162 -9 229 -26 229
-23 0 -57 -133 -65 -257 l-9 -118 4 141 c2 77 5 147 7 155 4 19 -33 13 -50 -9
-7 -9 -16 -29 -19 -44 -6 -32 -23 -27 -23 6 0 13 -6 29 -14 35 -11 9 -15 7
-20 -11 -5 -18 -8 -20 -15 -9 -19 30 -50 -70 -66 -213 -4 -32 -10 -54 -14 -50
-4 5 -15 43 -25 86 -10 43 -25 83 -36 93 -17 15 -19 15 -39 -6 -20 -22 -25
-57 -24 -171 0 -31 -15 -19 -32 25 -18 48 -60 105 -69 96 -4 -3 1 -25 9 -49 8
-23 15 -47 15 -52 0 -15 -28 -21 -42 -8 -7 6 -29 21 -48 33 l-35 22 28 3 c15
2 27 8 27 14 0 7 -15 9 -40 5 -22 -3 -40 -1 -40 4 0 5 6 9 14 9 7 0 26 6 41
14 23 12 24 15 8 19 -15 4 -14 5 4 6 12 0 25 6 29 13 7 11 -13 10 -138 -8 -31
-4 -48 -3 -48 3 0 12 33 23 72 23 15 0 30 5 33 10 3 6 25 10 48 10 56 0 69 9
51 35 -12 16 -29 20 -87 23 -68 3 -95 -1 -192 -29 -31 -8 -47 -8 -70 1 l-30
12 40 15 c22 8 54 13 72 11 17 -2 30 -1 27 3 -2 4 8 10 23 12 19 3 13 4 -17 5
-25 1 -67 -5 -94 -13 -56 -17 -86 -19 -86 -6 0 9 67 29 120 35 19 2 8 2 -25 1
-33 -2 -71 -6 -85 -9 -14 -3 -19 -4 -12 0 6 3 10 10 6 15 -3 5 14 9 38 9 24 0
49 4 57 9 13 8 -61 18 -176 25 -43 2 -73 16 -35 16 41 0 32 19 -13 25 -25 4
-45 12 -45 17 0 5 -6 8 -12 5 -7 -2 -31 5 -52 16 -53 26 -165 69 -196 74 -135
23 -580 -40 -867 -123 -99 -29 -126 -33 -143 -24 -12 6 -20 14 -18 18 2 4 21
42 42 84 36 72 39 84 39 160 0 144 -54 295 -167 473 -31 50 -55 99 -54 109 2
15 27 26 128 53 69 18 147 38 175 44 90 21 311 -7 490 -63 102 -31 335 -146
358 -176 28 -38 233 -190 302 -224 116 -58 263 -38 354 49 25 25 70 56 98 69
60 29 146 117 173 179 10 22 21 60 25 85 5 31 19 57 42 84 51 57 67 99 52 144
-18 58 -82 174 -168 302 -104 156 -100 146 -122 266 -10 57 -28 125 -40 151
-12 26 -27 64 -35 86 -22 61 -85 143 -236 303 -58 61 -68 77 -68 107 0 44 -19
57 -85 57 -36 0 -61 9 -115 41 -84 49 -217 109 -246 109 -37 0 -72 47 -98 134
-43 141 -106 200 -212 201 -109 0 -192 -91 -238 -260 -15 -57 -28 -89 -36 -87
-7 1 -85 7 -174 13 -270 17 -525 -6 -786 -71 -253 -63 -303 -72 -485 -81 -223
-10 -300 -29 -460 -108 -152 -76 -228 -134 -352 -268 -190 -206 -249 -260
-375 -342 -68 -44 -184 -122 -258 -173 -74 -51 -172 -116 -217 -145 l-82 -51
-43 40 c-44 41 -209 139 -286 170 -89 37 -462 63 -637 45 l-81 -9 -23 49 c-37
76 -81 143 -133 205 -27 31 -45 59 -40 61 15 10 204 -165 223 -207 10 -23 19
-35 19 -27 0 11 5 10 20 -4 26 -23 28 -1 3 35 -41 61 -129 178 -154 205 -17
19 -25 35 -20 43 5 9 21 2 57 -25 116 -88 147 -119 176 -178 24 -49 29 -54 24
-26 -5 29 -4 32 9 21 44 -36 -15 58 -93 149 -24 28 -37 48 -28 45 9 -3 16 -1
16 5 0 19 110 -110 142 -167 17 -29 32 -51 35 -49 8 8 -38 116 -66 154 -34 46
-64 103 -56 103 15 0 75 -54 75 -67 0 -7 8 -13 17 -11 19 3 67 -60 84 -112 15
-45 32 -64 20 -22 -5 17 -13 37 -17 44 -4 7 9 -3 29 -21 21 -19 37 -30 37 -23
0 16 -21 62 -42 94 -14 20 -16 32 -8 52 6 16 6 27 0 31 -6 4 -11 -6 -11 -22
-2 -25 -2 -26 -6 -4 -9 45 14 48 57 6 22 -21 40 -45 40 -52 0 -7 4 -13 10 -13
5 0 19 -18 30 -40 11 -22 22 -40 25 -40 7 0 -17 53 -32 71 -7 8 -13 22 -13 29
0 8 -17 32 -37 53 -25 26 -31 36 -16 28 24 -12 81 -79 107 -126 l17 -30 -5 35
c-5 33 -5 34 9 16 31 -40 13 1 -19 45 -23 31 -51 54 -90 72 -31 15 -61 27 -66
27 -6 0 -53 20 -106 45 -52 25 -101 45 -108 45 -7 0 -23 12 -37 26 -48 52
-158 121 -226 142 -160 48 -214 57 -353 56 -124 -1 -143 -4 -229 -33 l-94 -32
-45 51 c-76 87 -222 178 -341 214 -87 26 -83 18 6 -13 95 -33 169 -75 257
-147 58 -48 103 -101 93 -110 -2 -2 -25 12 -50 31 -64 49 -240 140 -327 170
-40 14 -102 27 -139 29 l-66 5 60 -9 c71 -11 205 -50 205 -61 0 -3 26 -17 58
-29 54 -22 120 -65 187 -124 24 -20 27 -28 17 -38 -10 -10 -16 -10 -30 0 -142
100 -321 162 -468 162 -57 0 -67 16 -59 87 12 91 81 361 113 439 35 84 88 160
134 193 18 13 27 18 21 11 -9 -10 -10 -17 -2 -27 9 -10 6 -13 -12 -14 -21 -1
-21 -2 -4 -6 11 -3 23 -10 27 -17 6 -8 8 -7 8 2 0 9 11 11 38 8 20 -3 29 -3
20 0 -15 5 -26 24 -14 24 20 0 96 -36 112 -53 12 -12 35 -34 52 -49 17 -15 43
-46 58 -68 15 -22 30 -38 34 -35 4 2 12 -7 19 -22 6 -14 14 -23 18 -19 11 10
-86 143 -129 177 -22 18 -36 35 -29 37 6 2 9 9 5 15 -3 7 20 -15 50 -47 31
-33 56 -56 56 -53 0 35 -194 246 -226 247 -7 0 -30 -18 -52 -40z m69 13 c12
-14 12 -17 0 -21 -11 -4 -11 -6 0 -13 12 -7 11 -9 -1 -9 -13 0 -13 -1 0 -11
12 -8 12 -10 -4 -7 -14 2 -20 13 -22 41 -4 40 5 47 27 20z m-121 -65 c0 -2
-20 -23 -45 -47 -45 -45 -60 -52 -27 -13 9 11 24 30 32 41 11 17 40 30 40 19z
m165 -8 c3 -6 -1 -7 -9 -4 -18 7 -21 14 -7 14 6 0 13 -4 16 -10z m-15 -16 c22
-9 40 -21 40 -26 0 -6 -8 -7 -17 -3 -10 4 -31 12 -48 17 -16 6 -34 15 -39 19
-16 15 20 10 64 -7z m-280 -34 c0 -5 -2 -10 -4 -10 -3 0 -8 5 -11 10 -3 6 -1
10 4 10 6 0 11 -4 11 -10z m32 -37 c4 -2 1 -15 -8 -28 -15 -23 -18 -24 -44
-10 -16 8 -37 15 -47 15 -12 0 -14 3 -7 10 8 8 19 8 38 0 40 -15 56 -11 21 6
l-30 14 35 -2 c19 -1 38 -3 42 -5z m-211 -43 c-13 -11 -28 -20 -35 -20 -6 1 0
10 13 20 13 11 28 20 35 20 6 -1 0 -10 -13 -20z m177 -14 c7 -8 -9 -46 -18
-41 -4 3 -6 -3 -4 -12 7 -28 -11 -49 -29 -35 -26 22 -102 26 -138 8 -18 -9
-34 -14 -37 -11 -10 10 19 57 32 52 7 -3 18 -1 24 5 11 11 35 1 27 -12 -3 -4
4 -6 15 -3 11 3 17 9 14 14 -3 5 7 9 23 9 28 1 28 1 5 13 -12 7 -19 17 -15 21
8 8 92 1 101 -8z m-45 -116 c-1 -8 -16 -67 -33 -130 -17 -63 -39 -157 -49
-208 l-16 -93 -25 27 c-25 27 -25 27 -2 21 12 -3 22 -1 22 3 0 5 -19 11 -42
15 -24 4 -53 13 -66 21 -12 8 -27 12 -32 9 -5 -3 -35 -13 -65 -20 -30 -8 -79
-26 -108 -40 l-52 -26 35 33 c19 18 46 41 60 51 25 17 25 17 -7 2 -40 -19 -44
-4 -7 30 24 23 80 45 112 45 6 0 12 4 12 8 0 5 -21 6 -47 1 -27 -4 -49 -6 -51
-4 -1 1 9 10 23 19 38 25 125 37 193 26 80 -14 92 -12 57 8 -21 12 -53 17
-107 17 -43 0 -78 1 -78 2 0 2 15 9 33 17 17 8 25 15 17 15 -8 0 -35 -8 -59
-19 -35 -16 -41 -17 -31 -4 15 17 65 45 77 43 4 -1 16 1 26 6 10 4 53 5 94 2
58 -4 73 -3 64 6 -7 7 -44 12 -92 12 -73 0 -79 2 -77 20 3 22 32 32 98 35 38
2 41 3 20 10 -14 4 -41 8 -62 9 -31 1 -35 4 -31 21 3 11 8 18 12 16 3 -2 14
-1 24 3 9 3 50 6 90 6 58 0 72 -3 70 -15z m-215 -12 c-5 -13 -18 -21 -67 -36
-50 -17 -48 -9 7 21 52 29 66 33 60 15z m-1363 -167 c17 -7 12 -12 -35 -36
-30 -15 -69 -38 -87 -51 -41 -31 -49 -30 -28 4 22 34 57 62 69 55 5 -3 6 -1 2
6 -4 7 2 15 16 20 28 12 37 12 63 2z m-215 -11 c-8 -5 -19 -10 -25 -10 -5 0
-3 5 5 10 8 5 20 10 25 10 6 0 3 -5 -5 -10z m257 -30 c-14 -11 -29 -20 -34
-20 -11 1 37 40 49 40 6 0 -1 -9 -15 -20z m333 -10 c6 -4 -19 -10 -57 -13 -37
-3 -79 -9 -92 -13 -23 -7 -23 -6 -6 14 15 17 30 20 80 20 34 0 68 -4 75 -8z
m291 -77 c13 -16 12 -17 -3 -4 -10 7 -18 15 -18 17 0 8 8 3 21 -13z m-51 -13
c8 -5 11 -12 7 -16 -4 -4 -15 0 -24 9 -18 18 -8 23 17 7z m-334 -45 c-11 -8
-22 -12 -25 -9 -6 6 19 24 34 24 6 -1 1 -7 -9 -15z m274 6 c0 -11 -59 -26 -67
-17 -4 3 5 6 18 6 19 0 21 2 9 10 -12 8 -9 10 13 10 15 0 27 -4 27 -9z m-102
-33 c-3 -7 -12 -14 -21 -16 -12 -2 -15 1 -11 12 7 19 38 22 32 4z m-88 -8 c-8
-5 -19 -10 -25 -10 -5 0 -3 5 5 10 8 5 20 10 25 10 6 0 3 -5 -5 -10z m265 0
c-27 -12 -35 -12 -35 0 0 6 12 10 28 9 24 0 25 -1 7 -9z m-245 -19 c0 -5 -46
-33 -102 -61 l-103 -52 33 34 c18 19 29 38 25 43 -5 4 -3 5 3 2 6 -4 20 0 30
8 14 10 15 14 5 15 -8 0 -11 3 -8 6 4 4 14 1 23 -6 10 -10 18 -10 22 -3 11 18
72 29 72 14z m280 -30 c0 -9 -59 -21 -95 -20 -16 0 -13 4 10 14 34 16 85 19
85 6z m55 -1 c3 -5 -1 -10 -9 -10 -9 0 -16 5 -16 10 0 6 4 10 9 10 6 0 13 -4
16 -10z m103 -19 c3 -8 -1 -12 -9 -9 -7 2 -15 10 -17 17 -3 8 1 12 9 9 7 -2
15 -10 17 -17z m-644 -43 c-26 -29 -59 -60 -73 -70 -13 -9 -35 -29 -48 -45
-24 -28 -24 -28 -17 -3 17 64 72 123 144 154 19 8 37 15 39 16 2 0 -18 -24
-45 -52z m173 -1 c-12 -19 -47 -48 -77 -65 -93 -51 -182 -121 -176 -138 3 -8
2 -12 -3 -9 -5 3 -13 0 -17 -6 -5 -8 -3 -9 7 -4 8 5 10 4 6 0 -10 -11 -37 -15
-37 -6 0 9 113 121 154 153 30 23 158 108 163 108 1 0 -8 -15 -20 -33z m1073
-14 c0 -24 -18 -13 -29 19 -11 31 -11 31 9 13 11 -10 20 -24 20 -32z m-576 21
c4 -10 1 -14 -6 -12 -15 5 -23 28 -10 28 5 0 13 -7 16 -16z m817 -8 c113 -29
235 -75 308 -117 52 -30 53 -31 32 -45 -19 -14 -24 -13 -49 4 -72 51 -253 121
-318 122 -20 1 -97 60 -77 60 6 0 53 -11 104 -24z m-908 0 c7 -18 -1 -26 -27
-26 -17 0 -18 2 -6 10 11 7 11 10 2 10 -7 0 -10 5 -7 10 9 15 32 12 38 -4z
m462 4 c-3 -5 -11 -10 -16 -10 -6 0 -7 5 -4 10 3 6 11 10 16 10 6 0 7 -4 4
-10z m153 -15 c-3 -3 -9 2 -12 12 -6 14 -5 15 5 6 7 -7 10 -15 7 -18z m-53 5
c3 -5 1 -10 -4 -10 -6 0 -11 5 -11 10 0 6 2 10 4 10 3 0 8 -4 11 -10z m-445
-31 c0 -6 -4 -7 -10 -4 -5 3 -10 11 -10 16 0 6 5 7 10 4 6 -3 10 -11 10 -16z
m-455 -16 c-41 -30 -59 -33 -25 -4 19 16 37 27 40 24 3 -2 -4 -11 -15 -20z
m869 12 c3 -9 0 -15 -9 -15 -9 0 -12 6 -9 15 4 8 7 15 9 15 2 0 5 -7 9 -15z
m48 0 c0 -5 -5 -11 -11 -13 -6 -2 -11 4 -11 13 0 9 5 15 11 13 6 -2 11 -8 11
-13z m-1182 -30 c-18 -19 -36 -32 -39 -29 -6 5 57 64 68 64 3 0 -10 -16 -29
-35z m690 25 c0 -5 -12 -10 -26 -10 -14 0 -23 -4 -19 -9 3 -5 0 -13 -6 -17 -8
-4 -9 -3 -5 4 5 8 -2 12 -20 12 -17 0 -24 4 -18 9 19 19 94 27 94 11z m580
-12 c0 -12 -3 -18 -7 -14 -11 10 -12 36 -2 36 5 0 9 -10 9 -22z m1011 5 c7 -7
3 -9 -15 -6 -15 3 -28 9 -31 12 -7 12 34 6 46 -6z m54 7 c3 -5 -3 -10 -14 -10
-11 0 -23 5 -26 10 -3 6 3 10 14 10 11 0 23 -4 26 -10z m50 0 c3 -5 11 -10 16
-10 6 0 7 5 3 12 -4 7 -3 8 5 4 6 -4 8 -12 5 -18 -4 -6 0 -15 7 -20 10 -6 6
-7 -11 -2 -29 8 -50 23 -50 35 0 12 17 11 25 -1z m-1330 -10 c-3 -5 -13 -10
-21 -10 -8 0 -12 5 -9 10 3 6 13 10 21 10 8 0 12 -4 9 -10z m511 -14 c67 -23
214 -92 214 -101 0 -2 -31 11 -70 29 -38 19 -100 42 -137 52 -69 18 -123 44
-92 44 9 0 47 -11 85 -24z m378 -35 c-2 -3 -19 10 -37 28 l-32 34 37 -29 c20
-15 35 -30 32 -33z m269 52 c-7 -2 -19 -2 -25 0 -7 3 -2 5 12 5 14 0 19 -2 13
-5z m267 -13 c0 -5 -7 -7 -15 -4 -8 4 -15 8 -15 10 0 2 7 4 15 4 8 0 15 -4 15
-10z m-2320 -5 c0 -3 -21 -29 -47 -58 -27 -30 -65 -75 -86 -100 -34 -43 -39
-45 -62 -35 -14 6 -25 18 -25 25 0 23 102 119 156 146 49 26 64 31 64 22z
m420 -5 c0 -11 -48 -25 -57 -16 -3 3 5 10 18 15 32 13 39 13 39 1z m470 -10
c-16 -11 -40 -13 -40 -5 0 8 44 24 50 18 2 -2 -2 -8 -10 -13z m-335 0 c4 -6
-5 -10 -19 -10 -14 0 -26 5 -26 10 0 6 9 10 19 10 11 0 23 -4 26 -10z m565
-36 c0 -8 -4 -12 -10 -9 -5 3 -10 13 -10 21 0 8 5 12 10 9 6 -3 10 -13 10 -21z
m1366 -2 c-4 -3 -14 2 -24 12 -16 18 -16 18 6 6 13 -6 21 -14 18 -18z m-1928
9 c9 -5 -1 -10 -30 -14 -24 -3 -52 -9 -63 -13 -13 -5 -16 -4 -11 5 16 25 78
39 104 22z m622 -11 c0 -5 8 -10 17 -10 9 0 14 -3 10 -6 -8 -8 -47 5 -47 17 0
5 5 9 10 9 6 0 10 -4 10 -10z m260 -5 c14 -4 60 -23 103 -43 58 -26 75 -38 67
-47 -8 -10 -26 -5 -80 21 -38 19 -83 37 -100 40 -17 4 -35 15 -41 26 -9 17 -8
19 8 15 10 -3 29 -9 43 -12z m450 5 c0 -13 -11 -13 -30 0 -12 8 -11 10 8 10
12 0 22 -4 22 -10z m475 0 c3 -5 2 -10 -4 -10 -5 0 -13 5 -16 10 -3 6 -2 10 4
10 5 0 13 -4 16 -10z m90 -10 c10 -11 14 -20 8 -20 -5 0 -18 9 -28 20 -10 11
-14 20 -8 20 5 0 18 -9 28 -20z m-2093 -22 c-5 -5 -20 -8 -33 -6 -24 3 -23 4
6 20 30 16 48 7 27 -14z m714 5 c-10 -10 -19 5 -10 18 6 11 8 11 12 0 2 -7 1
-15 -2 -18z m-30 8 c-7 -11 -97 -34 -104 -26 -9 9 6 18 33 18 14 0 25 3 25 8
0 5 12 9 26 9 14 0 23 -4 20 -9z m739 -1 c3 -5 -1 -10 -9 -10 -8 0 -18 5 -21
10 -3 6 1 10 9 10 8 0 18 -4 21 -10z m-1515 -20 c-14 -11 -47 -27 -75 -36 -58
-19 -177 -77 -217 -106 -16 -11 -28 -16 -28 -11 0 17 235 152 284 164 54 12
63 10 36 -11z m935 -1 l30 -21 -35 6 c-24 4 -31 3 -24 -4 6 -6 30 -14 53 -18
24 -4 42 -11 41 -16 -1 -5 4 -13 12 -17 23 -15 -19 -11 -59 6 -40 17 -66 20
-43 5 13 -9 13 -10 0 -11 -8 -1 0 -4 18 -8 39 -7 39 -27 0 -25 -16 1 -26 -2
-23 -6 3 -4 -2 -13 -11 -20 -13 -12 -15 -4 -13 68 2 90 6 94 54 61z m709 6 c7
-19 -14 -19 -40 0 -18 14 -18 14 7 15 15 0 29 -7 33 -15z m146 0 c10 -12 10
-15 -3 -15 -8 0 -20 7 -27 15 -10 12 -10 15 3 15 8 0 20 -7 27 -15z m244 -1
c9 -8 16 -23 16 -31 0 -13 -5 -12 -25 7 -14 13 -25 27 -25 32 0 13 17 9 34 -8z
m-1186 -61 c-3 -49 -4 -50 -28 -41 -24 10 -24 11 -5 19 12 5 -3 6 -37 2 -78
-8 -77 12 2 29 37 7 56 16 51 21 -5 5 -7 16 -4 24 11 29 24 -5 21 -54z m-580
40 c2 -8 -5 -13 -20 -12 -20 1 -21 2 -3 7 l20 5 -20 8 c-19 8 -19 9 -1 6 11
-1 21 -8 24 -14z m500 2 c-3 -3 -23 -8 -44 -11 l-39 -4 40 13 c38 13 55 13 43
2z m42 5 c0 -5 -7 -10 -16 -10 -8 0 -12 5 -9 10 3 6 10 10 16 10 5 0 9 -4 9
-10z m640 0 c0 -5 -5 -10 -11 -10 -5 0 -7 5 -4 10 3 6 8 10 11 10 2 0 4 -4 4
-10z m90 -11 c0 -6 -4 -7 -10 -4 -5 3 -10 11 -10 16 0 6 5 7 10 4 6 -3 10 -11
10 -16z m328 -14 c-3 -3 -9 2 -12 12 -6 14 -5 15 5 6 7 -7 10 -15 7 -18z m107
15 c3 -5 1 -10 -4 -10 -6 0 -11 5 -11 10 0 6 2 10 4 10 3 0 8 -4 11 -10z m285
-5 c7 -9 8 -15 2 -15 -5 0 -12 7 -16 15 -3 8 -4 15 -2 15 2 0 9 -7 16 -15z
m-2210 0 c0 -8 -102 -55 -119 -55 -28 0 5 22 61 41 62 21 58 21 58 14z m1606
-9 c10 -8 16 -17 12 -21 -8 -8 -48 13 -48 25 0 14 13 12 36 -4z m725 -3 c13
-16 12 -17 -3 -4 -10 7 -18 15 -18 17 0 8 8 3 21 -13z m-3370 -30 c-55 -47
-114 -87 -105 -71 39 67 85 106 128 107 15 1 9 -8 -23 -36z m143 26 c-3 -6
-20 -9 -38 -6 -18 2 -41 -2 -56 -11 -25 -16 -25 -16 -7 5 13 15 30 21 63 21
29 1 42 -2 38 -9z m63 5 c-3 -3 -12 -4 -19 -1 -8 3 -5 6 6 6 11 1 17 -2 13 -5z
m2029 -21 c32 -14 53 -28 46 -31 -16 -5 -99 27 -113 44 -17 21 1 17 67 -13z
m-996 9 c0 -11 -38 -42 -53 -43 -6 0 -3 -4 8 -9 13 -6 15 -9 5 -9 -8 0 -22 4
-30 9 -12 7 -10 11 10 19 21 8 22 10 6 10 -34 1 0 23 47 30 4 0 7 -2 7 -7z
m1280 -2 c0 -5 -2 -10 -4 -10 -3 0 -8 5 -11 10 -3 6 -1 10 4 10 6 0 11 -4 11
-10z m284 -6 c23 -23 19 -40 -4 -19 -11 10 -20 22 -20 27 0 12 7 10 24 -8z
m-2884 3 c0 -2 -17 -19 -37 -38 l-38 -34 34 38 c33 34 41 42 41 34z m3004 -13
c4 -10 1 -14 -6 -12 -15 5 -23 28 -10 28 5 0 13 -7 16 -16z m-544 -15 c7 -11
9 -23 6 -26 -8 -9 -47 28 -40 38 9 15 23 10 34 -12z m-1500 -2 c-26 -24 -170
-98 -170 -87 0 5 39 30 88 54 96 49 103 52 82 33z m1785 3 c8 -13 -5 -13 -25
0 -13 8 -13 10 2 10 9 0 20 -4 23 -10z m-2868 -22 c-12 -13 -35 -39 -50 -58
-27 -33 -28 -34 -13 -5 17 34 62 85 76 85 5 0 -1 -10 -13 -22z m453 18 c0 -2
-9 -6 -20 -9 -11 -3 -20 -1 -20 4 0 5 9 9 20 9 11 0 20 -2 20 -4z m2305 -6 c3
-5 -1 -10 -9 -10 -8 0 -18 5 -21 10 -3 6 1 10 9 10 8 0 18 -4 21 -10z m-2850
-22 c-16 -12 -50 -42 -75 -67 -34 -36 -40 -39 -26 -16 26 42 67 86 91 95 36
15 41 10 10 -12z m595 12 c0 -5 -7 -10 -16 -10 -8 0 -12 5 -9 10 3 6 10 10 16
10 5 0 9 -4 9 -10z m820 0 c0 -5 -5 -10 -11 -10 -5 0 -7 5 -4 10 3 6 8 10 11
10 2 0 4 -4 4 -10z m1935 0 c3 -5 2 -10 -4 -10 -5 0 -13 5 -16 10 -3 6 -2 10
4 10 5 0 13 -4 16 -10z m-1995 -4 c0 -3 -4 -8 -10 -11 -5 -3 -10 -1 -10 4 0 6
5 11 10 11 6 0 10 -2 10 -4z m-1015 -38 c-28 -33 -55 -54 -55 -43 0 16 35 65
49 68 32 9 32 6 6 -25z m172 26 c-3 -3 -12 -4 -19 -1 -8 3 -5 6 6 6 11 1 17
-2 13 -5z m1617 -2 c2 -4 1 -14 -3 -21 -7 -11 -15 -11 -47 0 -37 12 -38 13
-14 20 35 10 58 10 64 1z m734 -4 c14 -14 16 -28 2 -28 -5 0 -14 9 -20 20 -12
22 -1 27 18 8z m432 -9 c0 -5 -4 -9 -10 -9 -5 0 -10 7 -10 16 0 8 5 12 10 9 6
-3 10 -10 10 -16z m193 -7 c26 -23 20 -35 -8 -15 -26 19 -44 49 -22 37 6 -4
20 -14 30 -22z m-2773 14 c0 -3 -4 -8 -10 -11 -5 -3 -10 -1 -10 4 0 6 5 11 10
11 6 0 10 -2 10 -4z m2265 -7 c12 -19 -5 -23 -22 -6 -16 16 -16 17 -1 17 9 0
20 -5 23 -11z m250 -9 c3 -5 1 -10 -4 -10 -6 0 -11 5 -11 10 0 6 2 10 4 10 3
0 8 -4 11 -10z m601 -12 l19 -21 -27 18 c-29 18 -34 25 -20 25 5 0 17 -10 28
-22z m-3276 8 c0 -3 -4 -8 -10 -11 -5 -3 -10 -1 -10 4 0 6 5 11 10 11 6 0 10
-2 10 -4z m3320 -6 c0 -5 -7 -7 -15 -4 -8 4 -15 8 -15 10 0 2 7 4 15 4 8 0 15
-4 15 -10z m-2760 -5 c0 -6 -56 -35 -67 -35 -9 0 48 38 60 39 4 1 7 -1 7 -4z
m345 -5 c-3 -5 -11 -10 -16 -10 -6 0 -7 5 -4 10 3 6 11 10 16 10 6 0 7 -4 4
-10z m2305 -5 c11 -13 10 -14 -4 -9 -9 3 -16 10 -16 15 0 13 6 11 20 -6z
m-3286 -10 c-6 -16 -43 -40 -50 -33 -2 2 3 14 12 26 17 25 47 30 38 7z m837
-5 c-13 -11 -34 -20 -46 -20 -13 0 -32 -3 -42 -6 -16 -6 -16 -5 -3 9 12 12 63
29 110 36 3 0 -6 -9 -19 -19z m102 6 c4 -10 -6 -14 -41 -14 -43 -1 -45 0 -28
14 25 18 62 18 69 0z m927 4 c0 -5 -2 -10 -4 -10 -3 0 -8 5 -11 10 -3 6 -1 10
4 10 6 0 11 -4 11 -10z m1630 -78 c0 -3 -7 1 -15 8 -24 20 -17 -1 9 -29 13
-15 31 -39 41 -56 l17 -30 -23 30 c-12 17 -49 56 -81 87 -32 32 -58 61 -58 65
0 3 10 -3 23 -15 33 -31 45 -27 16 6 -13 15 -2 7 24 -18 26 -24 47 -46 47 -48z
m-1590 68 c0 -5 -2 -10 -4 -10 -3 0 -8 5 -11 10 -3 6 -1 10 4 10 6 0 11 -4 11
-10z m1068 -44 c35 -31 26 -41 -10 -11 -38 32 -65 70 -32 45 10 -8 29 -23 42
-34z m93 7 l34 -36 -31 21 c-36 24 -61 52 -47 52 5 0 25 -16 44 -37z m19 16
c0 -6 -4 -7 -10 -4 -5 3 -10 11 -10 16 0 6 5 7 10 4 6 -3 10 -11 10 -16z m415
11 c3 -5 1 -10 -4 -10 -6 0 -11 5 -11 10 0 6 2 10 4 10 3 0 8 -4 11 -10z
m-1965 -10 c0 -5 -2 -10 -4 -10 -3 0 -8 5 -11 10 -3 6 -1 10 4 10 6 0 11 -4
11 -10z m-859 -21 c-13 -11 -27 -17 -30 -13 -7 7 28 34 43 34 6 -1 0 -10 -13
-21z m-376 -19 c-25 -27 -50 -28 -33 -1 7 11 15 18 19 15 4 -2 11 1 14 7 4 5
10 8 13 5 3 -3 -3 -15 -13 -26z m95 26 c0 -2 -8 -10 -17 -17 -16 -13 -17 -12
-4 4 13 16 21 21 21 13z m140 0 c0 -2 -7 -7 -16 -10 -8 -3 -12 -2 -9 4 6 10
25 14 25 6z m3150 -80 c-3 -2 -23 17 -44 42 l-39 47 43 -42 c24 -23 42 -44 40
-47z m-1853 58 c-3 -3 -12 -4 -19 -1 -8 3 -5 6 6 6 11 1 17 -2 13 -5z m-1977
-18 c0 -2 -8 -10 -17 -17 -16 -13 -17 -12 -4 4 13 16 21 21 21 13z m290 0 c0
-3 -4 -8 -10 -11 -5 -3 -10 -1 -10 4 0 6 5 11 10 11 6 0 10 -2 10 -4z m-16
-40 c-6 -16 -53 -50 -60 -44 -5 6 45 58 56 58 5 0 7 -6 4 -14z m140 -1 c-6
-15 -42 -40 -49 -33 -9 9 21 36 52 47 1 1 0 -6 -3 -14z m1544 -2 c-10 -2 -28
-2 -40 0 -13 2 -5 4 17 4 22 1 32 -1 23 -4z m834 -77 c20 -26 20 -28 2 -18
-34 18 -74 61 -74 78 0 15 4 14 26 -7 14 -13 35 -37 46 -53z m172 32 c10 -13
16 -17 16 -9 0 10 6 9 21 -5 27 -25 119 -140 119 -149 0 -4 -21 12 -47 36 -27
25 -65 57 -85 73 -20 15 -46 43 -57 62 -20 33 -20 34 -1 24 10 -6 26 -20 34
-32z m-2586 -25 c-7 -17 -30 -45 -52 -64 l-39 -33 23 43 c22 45 67 97 76 88 3
-2 -1 -18 -8 -34z m1532 23 c32 -9 56 -11 58 -5 2 5 8 7 12 4 5 -3 3 -13 -5
-23 -12 -14 -28 -16 -80 -14 -61 4 -65 5 -65 28 0 28 7 29 80 10z m1232 -36
c2 7 48 -34 101 -90 54 -57 94 -106 90 -110 -4 -4 -27 -10 -51 -13 -40 -5 -44
-3 -53 21 -18 49 -44 93 -98 165 -35 47 -43 62 -24 44 19 -18 32 -24 35 -17z
m-27 -32 c77 -102 120 -188 95 -188 -6 0 -18 17 -27 38 -8 20 -35 66 -60 101
-41 59 -68 111 -59 111 3 0 25 -28 51 -62z m-1595 43 c0 -5 -9 -7 -20 -4 -11
3 -20 7 -20 9 0 2 9 4 20 4 11 0 20 -4 20 -9z m367 -27 c-3 -3 -12 -4 -19 -1
-8 3 -5 6 6 6 11 1 17 -2 13 -5z m-1451 -30 c-4 -9 -9 -15 -11 -12 -3 3 -3 13
1 22 4 9 9 15 11 12 3 -3 3 -13 -1 -22z m2559 -46 c62 -47 114 -113 115 -144
0 -6 -22 -21 -49 -32 l-50 -20 -46 73 c-25 40 -65 96 -90 123 -25 27 -45 54
-45 58 1 5 21 -13 45 -41 34 -39 45 -45 44 -30 0 11 -6 31 -14 45 -31 54 -18
49 90 -32z m-1225 32 c0 -5 -13 -10 -29 -10 -17 0 -33 5 -36 10 -4 6 8 10 29
10 20 0 36 -4 36 -10z m-1351 -49 c-6 -17 -17 -35 -25 -42 -18 -15 -18 -7 0
36 19 43 40 48 25 6z m2442 12 c13 -16 12 -17 -3 -4 -10 7 -18 15 -18 17 0 8
8 3 21 -13z m-1117 1 c9 -3 16 -10 16 -14 0 -10 -38 -1 -46 11 -6 10 7 12 30
3z m-94 -34 c0 -5 -7 -10 -15 -10 -8 0 -15 5 -15 10 0 6 7 10 15 10 8 0 15 -4
15 -10z m-1175 -116 l-37 -59 6 40 c13 84 18 96 39 104 36 14 32 -19 -8 -85z
m2150 46 c10 -11 16 -20 13 -20 -3 0 -13 9 -23 20 -10 11 -16 20 -13 20 3 0
13 -9 23 -20z m268 -54 c31 -26 55 -52 51 -57 -14 -23 -44 -4 -92 56 -53 67
-65 89 -34 64 9 -8 43 -36 75 -63z m-2309 27 c-25 -33 -47 -43 -37 -16 8 20
45 54 52 47 3 -2 -4 -16 -15 -31z m751 27 c3 -5 1 -10 -4 -10 -6 0 -11 5 -11
10 0 6 2 10 4 10 3 0 8 -4 11 -10z m1819 -31 c-9 -15 -20 -10 -32 16 -12 25
-12 25 13 9 14 -9 22 -20 19 -25z m466 21 c13 -9 13 -10 0 -9 -8 0 -24 4 -35
9 l-20 9 20 0 c11 0 27 -4 35 -9z m-2379 -23 c-13 -13 -26 -3 -16 12 3 6 11 8
17 5 6 -4 6 -10 -1 -17z m1543 -82 c-5 16 -2 15 22 -8 24 -23 27 -29 14 -37
-23 -15 -24 -14 -89 56 -79 86 -79 106 0 29 33 -33 57 -51 53 -40z m-1057 79
c-3 -3 -12 -4 -19 -1 -8 3 -5 6 6 6 11 1 17 -2 13 -5z m1633 -20 c22 -15 39
-28 37 -30 -6 -6 -107 39 -107 48 0 16 31 8 70 -18z m133 -56 c29 -27 43 -45
32 -39 -11 5 -29 19 -39 30 -10 11 -39 32 -62 46 -52 30 -56 38 -13 23 16 -6
54 -33 82 -60z m-2891 22 c4 -49 6 -46 -55 -99 -53 -45 -64 -48 -92 -27 -18
13 -18 15 10 52 l29 38 11 -35 12 -34 12 55 c7 35 20 61 34 72 31 25 34 23 39
-22z m2593 20 c4 -6 -5 -10 -20 -10 -15 0 -24 4 -20 10 3 6 12 10 20 10 8 0
17 -4 20 -10z m471 -31 c4 -8 1 -8 -14 0 -12 6 -24 16 -28 22 -4 8 -1 8 14 0
12 -6 24 -16 28 -22z m-2686 1 c0 -5 -5 -10 -11 -10 -5 0 -7 5 -4 10 3 6 8 10
11 10 2 0 4 -4 4 -10z m3130 -84 c37 -49 86 -143 78 -151 -2 -2 -16 21 -32 50
-15 30 -55 87 -89 127 -47 55 -53 66 -28 49 17 -13 49 -46 71 -75z m-3315 74
c-3 -5 -11 -10 -16 -10 -6 0 -7 5 -4 10 3 6 11 10 16 10 6 0 7 -4 4 -10z
m2765 -15 c14 -15 26 -21 30 -15 8 13 96 -63 105 -91 4 -10 10 -17 15 -14 11
7 160 -166 160 -187 0 -17 15 -31 38 -34 16 -3 15 8 -7 58 -19 44 -42 130 -36
136 2 2 28 -47 59 -109 31 -61 55 -113 53 -116 -9 -9 -291 -108 -397 -139
-104 -31 -119 -33 -166 -24 -43 9 -53 15 -59 37 -9 37 1 40 20 4 20 -40 29
-39 22 3 -4 27 -33 95 -85 199 -2 5 14 -11 37 -35 68 -72 42 1 -33 93 -12 14
5 -2 36 -35 44 -46 63 -75 79 -123 23 -71 45 -95 37 -43 l-5 33 44 -49 c40
-45 44 -46 38 -21 -3 15 -1 36 5 47 16 31 -21 163 -73 260 -13 24 18 -2 93
-80 62 -63 117 -128 122 -143 7 -19 13 -25 18 -17 5 9 9 9 14 1 17 -27 25 -8
11 27 -8 20 -22 73 -31 117 -16 83 -49 164 -86 210 -11 15 -24 23 -27 18 -3
-4 -21 7 -39 25 -19 17 -30 32 -25 32 5 0 20 -11 33 -25z m202 -19 c10 -19 10
-20 -6 -7 -9 8 -22 24 -28 35 -10 19 -10 20 6 7 9 -8 22 -24 28 -35z m-1077
-23 c22 -40 15 -54 -9 -18 -9 14 -24 37 -33 51 -17 26 -17 26 3 14 12 -7 29
-28 39 -47z m409 38 c3 -4 -6 -6 -19 -3 -14 2 -25 6 -25 8 0 8 39 4 44 -5z
m-2284 -15 c0 -15 -90 -99 -98 -92 -13 13 13 58 45 81 43 29 53 31 53 11z
m2430 -30 c22 -27 -5 -17 -31 10 -21 24 -22 26 -3 16 11 -6 26 -18 34 -26z
m118 -24 c16 -21 37 -50 47 -67 17 -29 16 -29 -15 5 -29 32 -30 33 -12 5 17
-27 42 -89 42 -104 0 -3 -16 21 -35 55 -19 34 -41 67 -50 74 -21 18 -19 35 3
20 9 -7 -3 6 -28 29 -45 41 -45 41 -13 30 18 -6 46 -27 61 -47z m872 38 c13
-11 18 -20 11 -20 -6 0 -21 9 -33 20 -12 11 -17 20 -11 20 5 0 20 -9 33 -20z
m-4210 1 c0 -6 -4 -13 -10 -16 -5 -3 -10 1 -10 9 0 9 5 16 10 16 6 0 10 -4 10
-9z m1320 0 c0 -5 -6 -14 -14 -20 -11 -9 -16 -9 -21 0 -4 6 -1 15 6 20 18 11
29 11 29 0z m1386 -38 c-4 -4 -11 -1 -16 7 -16 25 -11 35 7 17 9 -9 13 -20 9
-24z m774 2 c19 -19 32 -35 29 -35 -3 0 -20 16 -39 35 -19 19 -32 35 -29 35 3
0 20 -16 39 -35z m-3562 13 c-3 -7 -12 -14 -21 -16 -12 -2 -15 1 -11 12 7 19
38 22 32 4z m1537 -7 c-3 -6 -11 -11 -17 -11 -6 0 -6 6 2 15 14 17 26 13 15
-4z m2752 -109 c23 -39 24 -45 11 -59 -14 -13 -17 -10 -33 36 -9 29 -32 75
-51 104 l-34 52 41 -45 c22 -25 52 -64 66 -88z m-1587 65 c0 -6 -13 2 -30 18
-16 16 -30 30 -30 33 0 2 14 -6 30 -18 17 -12 30 -26 30 -33z m1468 -81 c63
-75 65 -79 46 -93 -47 -35 -50 -34 -63 10 -17 58 -48 124 -84 177 l-30 45 32
-30 c18 -16 63 -65 99 -109z m-3868 114 c0 -5 -10 -10 -22 -9 -22 0 -22 1 -3
9 11 5 21 9 23 9 1 1 2 -3 2 -9z m4025 0 c3 -5 2 -10 -4 -10 -5 0 -13 5 -16
10 -3 6 -2 10 4 10 5 0 13 -4 16 -10z m-3651 -38 c-14 -29 -34 -51 -34 -37 0
8 44 74 47 71 2 -2 -4 -17 -13 -34z m167 21 c-5 -10 -28 -36 -50 -58 -23 -21
-41 -44 -41 -49 0 -6 23 16 51 47 28 32 54 55 57 52 3 -2 7 -18 8 -33 3 -22
-5 -37 -36 -67 -38 -37 -41 -38 -66 -24 -15 7 -29 19 -31 26 -6 16 54 93 72
93 7 0 18 7 25 15 17 20 23 19 11 -2z m2114 7 c8 -13 -15 -13 -35 0 -12 8 -11
10 7 10 12 0 25 -4 28 -10z m131 -41 c47 -48 36 -51 -19 -4 -22 19 -44 35 -49
35 -4 0 -8 4 -8 9 0 19 39 -2 76 -40z m-3676 31 c-8 -5 -19 -10 -25 -10 -5 0
-3 5 5 10 8 5 20 10 25 10 6 0 3 -5 -5 -10z m446 -6 c-3 -9 -6 -18 -6 -20 0
-2 -4 -4 -9 -4 -5 0 -7 9 -4 20 3 11 10 20 15 20 6 0 7 -7 4 -16z m777 -4 c-3
-12 -8 -19 -11 -16 -5 6 5 36 12 36 2 0 2 -9 -1 -20z m862 10 c-3 -5 -13 -10
-21 -10 -8 0 -12 5 -9 10 3 6 13 10 21 10 8 0 12 -4 9 -10z m1806 -51 c20 -28
20 -30 3 -21 -10 6 -35 27 -54 47 l-35 37 32 -16 c17 -8 41 -30 54 -47z m-768
-17 c16 -19 -59 20 -93 48 -20 17 -15 16 28 -6 29 -15 58 -34 65 -42z m619 44
c3 3 33 -27 67 -66 59 -69 114 -168 151 -273 19 -52 19 -52 -2 -55 -11 -2 -24
0 -29 5 -14 14 -98 187 -93 192 2 2 14 -5 27 -16 65 -59 52 -18 -19 59 -24 26
-44 55 -44 65 0 10 -12 32 -26 48 l-25 30 16 -32 c27 -57 16 -58 -35 -2 -57
62 -62 76 -21 55 16 -9 31 -13 33 -10z m-2852 5 c-8 -5 -33 -11 -55 -14 l-40
-6 40 14 c47 16 79 20 55 6z m-692 -23 c-19 -28 -40 -36 -31 -11 7 19 22 33
37 33 5 0 2 -10 -6 -22z m172 2 c0 -19 -36 -47 -47 -36 -8 7 25 56 37 56 6 0
10 -9 10 -20z m951 -29 c-14 -25 -56 -23 -56 4 0 11 5 20 12 20 7 0 18 6 25
13 17 17 32 -11 19 -37z m-702 25 c-11 -11 -132 -55 -121 -44 14 14 115 57
121 52 2 -2 2 -6 0 -8z m1071 4 c0 -5 -5 -10 -11 -10 -5 0 -7 5 -4 10 3 6 8
10 11 10 2 0 4 -4 4 -10z m1777 -6 c3 -8 -8 -9 -37 -4 -57 10 -64 22 -11 18
25 -2 46 -8 48 -14z m1481 -55 c-7 -5 -13 -7 -13 -6 -1 1 -12 20 -24 42 l-23
40 36 -34 c25 -24 32 -37 24 -42z m62 45 c0 -2 -9 0 -20 6 -11 6 -20 13 -20
16 0 2 9 0 20 -6 11 -6 20 -13 20 -16z m-3995 6 c-3 -5 -11 -10 -16 -10 -6 0
-7 5 -4 10 3 6 11 10 16 10 6 0 7 -4 4 -10z m1720 0 c3 -5 -1 -10 -9 -10 -9 0
-16 5 -16 10 0 6 4 10 9 10 6 0 13 -4 16 -10z m-1851 -29 c-14 -14 -84 -31
-84 -20 0 5 1 9 3 9 1 0 20 7 42 14 41 14 56 13 39 -3z m150 0 c7 -11 -22 -23
-35 -15 -5 3 -9 9 -9 15 0 12 37 12 44 0z m3647 -94 c23 -32 39 -60 37 -62 -1
-1 -20 -10 -40 -18 -31 -13 -38 -13 -38 -2 0 7 -11 45 -24 84 -13 39 -19 68
-14 65 6 -4 8 2 3 17 l-6 24 21 -25 c11 -14 39 -51 61 -83z m-4801 89 c0 -2
-11 -11 -25 -20 -14 -9 -25 -12 -25 -6 0 6 10 15 23 20 27 11 27 11 27 6z
m3040 -21 c19 -14 29 -25 23 -25 -20 0 -83 30 -83 40 0 17 25 11 60 -15z
m1195 -44 c60 -121 98 -235 53 -161 -12 19 -35 57 -52 85 -17 27 -31 61 -31
75 -1 14 -4 35 -9 48 -15 44 5 21 39 -47z m-2958 53 c-3 -3 -12 -4 -19 -1 -8
3 -5 6 6 6 11 1 17 -2 13 -5z m1433 -4 c0 -5 -7 -10 -15 -10 -8 0 -15 5 -15
10 0 6 7 10 15 10 8 0 15 -4 15 -10z m567 3 c-4 -3 -2 -12 4 -20 7 -8 8 -13 1
-13 -5 0 -15 6 -21 14 -9 11 -9 15 1 19 19 8 22 8 15 0z m-1689 -20 c-2 -9
-15 -20 -30 -24 -27 -7 -27 -7 -10 17 20 27 45 32 40 7z m2060 -101 c51 -55
92 -105 92 -111 0 -6 6 -11 13 -12 18 -1 70 -67 62 -79 -3 -5 -21 -10 -38 -10
-31 0 -34 5 -80 101 -37 79 -61 113 -113 165 -35 36 -56 61 -46 55 10 -5 59
-54 110 -109z m-2495 101 c-7 -2 -19 -2 -25 0 -7 3 -2 5 12 5 14 0 19 -2 13
-5z m142 -3 c4 -6 -7 -10 -27 -9 -31 1 -32 1 -8 9 14 4 26 8 27 9 1 1 5 -3 8
-9z m420 0 c-3 -5 -12 -10 -18 -10 -7 0 -6 4 3 10 19 12 23 12 15 0z m75 6 c0
-3 -4 -8 -10 -11 -5 -3 -10 -1 -10 4 0 6 5 11 10 11 6 0 10 -2 10 -4z m545 -6
c-3 -5 -16 -10 -28 -10 -18 0 -19 2 -7 10 20 13 43 13 35 0z m791 -22 l29 -31
-37 28 c-39 28 -45 35 -30 35 5 0 21 -14 38 -32z m-426 -9 c0 -12 -27 -11 -35
1 -11 17 5 32 21 19 8 -6 14 -15 14 -20z m-1640 12 c0 -5 -10 -11 -22 -14 -22
-6 -22 -6 -4 8 23 17 26 18 26 6z m650 -16 c-7 -9 -15 -13 -19 -10 -3 3 1 10
9 15 21 14 24 12 10 -5z m587 9 c-3 -3 -12 -4 -19 -1 -8 3 -5 6 6 6 11 1 17
-2 13 -5z m661 -22 c-3 -12 11 -24 41 -40 24 -12 45 -21 47 -19 2 2 -12 12
-31 23 -19 10 -35 24 -35 32 0 9 5 10 18 3 24 -13 78 -71 66 -71 -5 -1 2 -8
16 -16 46 -28 -12 -5 -75 31 -48 27 -61 39 -63 60 -1 16 2 24 9 20 5 -4 9 -14
7 -23z m742 19 c0 -5 3 -18 6 -28 6 -16 5 -16 -9 2 -19 23 -21 35 -7 35 6 0
10 -4 10 -9z m-2385 -22 c9 -13 6 -15 -32 -24 -26 -5 -33 -3 -33 8 0 22 54 35
65 16z m1910 1 c3 -5 2 -10 -4 -10 -5 0 -13 5 -16 10 -3 6 -2 10 4 10 5 0 13
-4 16 -10z m-2269 -9 c-3 -5 -38 -25 -76 -45 -39 -20 -68 -31 -65 -26 5 8 130
77 143 80 2 0 1 -4 -2 -9z m1325 -5 c-7 -8 -22 -11 -39 -8 l-27 6 25 7 c43 12
54 11 41 -5z m1095 -14 c-4 -3 -14 2 -24 12 -16 18 -16 18 6 6 13 -6 21 -14
18 -18z m-1726 -2 c-14 -10 -27 -17 -29 -15 -8 8 22 35 38 35 12 0 10 -5 -9
-20z m2142 -57 c55 -77 83 -123 75 -123 -8 0 -112 145 -124 173 -7 15 -11 27
-9 27 1 0 28 -35 58 -77z m-1842 57 c0 -5 -5 -10 -11 -10 -5 0 -7 5 -4 10 3 6
8 10 11 10 2 0 4 -4 4 -10z m1170 -5 c17 -9 30 -20 30 -25 0 -17 -21 -11 -52
15 -33 28 -22 33 22 10z m175 -34 c-8 -8 -36 9 -30 19 3 5 -2 10 -12 10 -15 0
-16 2 -3 10 11 7 19 4 32 -13 9 -12 15 -23 13 -26z m-1592 19 c-3 -11 -9 -20
-14 -20 -10 0 -12 24 -2 33 13 13 21 7 16 -13z m732 1 c-3 -6 -11 -11 -17 -11
-6 0 -6 6 2 15 14 17 26 13 15 -4z m-1107 -3 c-3 -7 -22 -16 -44 -20 -21 -4
-49 -10 -61 -13 -16 -4 -23 -1 -23 10 0 8 6 15 13 16 23 1 49 8 55 13 11 12
64 6 60 -6z m2612 -147 c0 -23 -3 -41 -8 -41 -4 0 -15 21 -24 48 -10 26 -33
72 -53 102 l-36 55 61 -62 c54 -55 60 -65 60 -102z m-2190 131 c0 -5 -11 -14
-25 -20 -28 -13 -35 1 -7 17 21 13 32 14 32 3z m417 2 c-3 -3 -12 -4 -19 -1
-8 3 -5 6 6 6 11 1 17 -2 13 -5z m-647 -14 c0 -5 -4 -10 -10 -10 -5 0 -10 5
-10 10 0 6 5 10 10 10 6 0 10 -4 10 -10z m-370 -13 c0 -8 -19 -20 -42 -27 -24
-7 -60 -21 -81 -32 -22 -11 -41 -17 -43 -15 -5 4 145 86 159 87 4 0 7 -6 7
-13z m2070 -33 c17 -20 29 -38 27 -40 -3 -3 -20 3 -40 12 -33 16 -53 45 -39
58 11 11 20 6 52 -30z m-253 5 c49 -30 36 -33 -22 -4 -26 14 -40 25 -30 25 10
0 33 -10 52 -21z m-1337 -10 c0 -5 -4 -9 -10 -9 -5 0 -10 7 -10 16 0 8 5 12
10 9 6 -3 10 -10 10 -16z m269 -1 c-9 -16 -14 -19 -17 -9 -2 7 2 17 9 22 20
13 21 11 8 -13z m1717 -85 c5 -25 9 -31 19 -23 8 7 17 4 30 -10 10 -11 13 -20
8 -20 -6 0 -25 -3 -42 -6 -26 -5 -31 -3 -31 12 0 11 -16 50 -35 89 l-35 69 40
-39 c24 -24 42 -52 46 -72z m-2229 65 c-3 -8 -6 -5 -6 6 -1 11 2 17 5 13 3 -3
4 -12 1 -19z m418 12 c-3 -5 -1 -10 6 -10 7 0 10 -3 6 -6 -9 -9 -28 6 -22 17
4 5 8 9 11 9 3 0 2 -4 -1 -10z m930 0 c3 -5 1 -10 -4 -10 -6 0 -11 5 -11 10 0
6 2 10 4 10 3 0 8 -4 11 -10z m310 0 c3 -5 2 -10 -4 -10 -5 0 -13 5 -16 10 -3
6 -2 10 4 10 5 0 13 -4 16 -10z m248 -27 c13 -21 30 -49 37 -63 l13 -25 -26
24 c-29 26 -70 101 -56 101 5 0 19 -17 32 -37z m-1925 16 c-2 -6 -48 -25 -103
-43 -131 -43 -213 -85 -330 -169 -35 -25 -33 -22 12 20 28 27 88 70 132 96
117 70 301 131 289 96z m1547 -9 c19 -8 19 -9 -2 -9 -12 -1 -25 4 -28 9 -7 12
2 12 30 0z m-150 -10 c4 -6 14 -9 22 -8 9 2 18 -3 20 -9 3 -8 -4 -13 -19 -13
-24 0 -48 16 -48 32 0 11 18 10 25 -2z m-1835 -21 c-31 -24 -60 -41 -60 -35 0
6 72 56 80 56 3 0 -6 -9 -20 -21z m1920 -11 c0 -6 -7 -5 -15 2 -8 7 -15 17
-15 22 0 6 7 5 15 -2 8 -7 15 -17 15 -22z m-1375 12 c-11 -5 -27 -9 -35 -9 -9
0 -8 4 5 9 11 5 27 9 35 9 9 0 8 -4 -5 -9z m1457 -6 c42 0 57 -9 41 -25 -7 -7
-14 -5 -23 6 -14 17 -35 21 -25 5 11 -17 -12 -11 -36 11 -13 11 -17 17 -9 12
8 -4 32 -8 52 -9z m165 10 c-3 -3 -12 -4 -19 -1 -8 3 -5 6 6 6 11 1 17 -2 13
-5z m458 -71 c9 -19 14 -37 11 -40 -3 -4 -7 -4 -8 -2 -2 2 -16 29 -32 59 -24
46 -25 52 -8 37 11 -11 28 -35 37 -54z m-1919 26 c-27 -7 -32 -3 -17 15 10 12
16 13 26 3 11 -10 9 -13 -9 -18z m1069 -9 c23 -26 8 -26 -25 0 -18 14 -21 20
-9 20 9 0 24 -9 34 -20z m685 -31 c17 -28 30 -53 28 -55 -10 -9 -68 60 -68 82
0 13 2 24 4 24 2 0 18 -23 36 -51z m-532 27 c69 -15 81 -21 66 -36 -16 -16
-123 9 -135 31 -11 22 -12 22 69 5z m346 -17 c-3 -5 -1 -9 5 -9 6 0 16 -10 22
-22 12 -22 12 -22 -12 -6 -13 8 -24 22 -24 29 0 8 -5 21 -10 29 -8 13 -7 13 8
1 9 -7 14 -17 11 -22z m-1934 11 c-8 -5 -19 -10 -25 -10 -5 0 -3 5 5 10 8 5
20 10 25 10 6 0 3 -5 -5 -10z m1075 0 c3 -5 1 -10 -4 -10 -6 0 -11 5 -11 10 0
6 2 10 4 10 3 0 8 -4 11 -10z m736 -17 c13 -15 12 -15 -8 -4 -24 12 -29 21
-14 21 5 0 15 -7 22 -17z m254 -66 c19 -28 19 -49 0 -45 -9 2 -29 27 -46 57
l-31 54 31 -22 c17 -12 37 -32 46 -44z m-481 37 c41 -7 42 -10 19 -36 -21 -23
-59 -23 -66 0 -2 9 -8 26 -13 36 -6 15 -4 18 9 13 8 -3 32 -9 51 -13z m622
-32 c-8 -7 -25 8 -37 31 -11 21 -10 21 15 -2 14 -14 24 -26 22 -29z m584 33
c33 -19 21 -19 -21 0 -19 8 -27 14 -19 14 8 0 26 -6 40 -14z m-1085 -5 c3 -5
1 -10 -4 -10 -6 0 -11 5 -11 10 0 6 2 10 4 10 3 0 8 -4 11 -10z m130 -21 c24
-11 45 -28 48 -39 5 -20 4 -20 -26 2 -18 12 -26 15 -19 8 6 -8 12 -19 12 -24
0 -6 -15 5 -33 24 -18 19 -42 41 -53 48 -18 12 -18 12 4 6 13 -3 43 -14 67
-25z m720 21 c3 -5 2 -10 -4 -10 -5 0 -13 5 -16 10 -3 6 -2 10 4 10 5 0 13 -4
16 -10z m-2188 -6 c-7 -7 -171 -43 -176 -39 -2 2 23 11 55 20 33 9 64 18 69
20 17 6 59 5 52 -1z m2060 -30 c-6 -6 -47 9 -47 17 0 5 11 3 25 -3 14 -6 24
-13 22 -14z m344 -12 c-13 -4 -41 16 -41 29 0 5 12 2 26 -8 15 -9 21 -19 15
-21z m-1031 -2 c22 -11 40 -25 40 -31 0 -6 -12 -1 -26 10 -15 12 -33 21 -40
21 -7 0 -16 5 -19 10 -9 15 1 12 45 -10z m-720 -20 c0 -5 -5 -10 -11 -10 -5 0
-7 5 -4 10 3 6 8 10 11 10 2 0 4 -4 4 -10z m685 -20 c3 -6 -1 -7 -9 -4 -18 7
-21 14 -7 14 6 0 13 -4 16 -10z m139 -50 c-7 -7 -44 39 -44 54 1 6 12 -2 25
-19 13 -16 22 -32 19 -35z m630 37 c18 -13 18 -14 0 -21 -10 -4 -15 -4 -11 0
4 4 -1 13 -11 20 -23 18 -1 18 22 1z m-550 -13 c3 -8 2 -12 -4 -9 -6 3 -10 10
-10 16 0 14 7 11 14 -7z m-242 -23 c62 -40 68 -52 22 -46 -40 5 -84 29 -84 46
0 6 20 -1 45 -15 25 -15 45 -24 45 -22 0 3 -24 19 -52 36 -29 16 -46 30 -37
30 8 0 36 -13 61 -29z m676 -16 c-3 -3 -9 2 -12 12 -6 14 -5 15 5 6 7 -7 10
-15 7 -18z m-1345 0 c-4 -16 -43 -14 -43 2 0 9 8 13 23 11 12 -2 21 -7 20 -13z
m-53 1 c0 -3 -4 -8 -10 -11 -5 -3 -10 -1 -10 4 0 6 5 11 10 11 6 0 10 -2 10
-4z m-390 -20 c0 -3 -4 -8 -10 -11 -5 -3 -10 -1 -10 4 0 6 5 11 10 11 6 0 10
-2 10 -4z m1440 -6 c0 -5 -2 -10 -4 -10 -3 0 -8 5 -11 10 -3 6 -1 10 4 10 6 0
11 -4 11 -10z m180 0 c0 -5 -4 -10 -10 -10 -5 0 -10 5 -10 10 0 6 5 10 10 10
6 0 10 -4 10 -10z m-1129 -33 c12 -22 12 -22 -10 -3 -11 11 -21 23 -21 28 0
14 19 -1 31 -25z m-524 17 c-3 -3 -12 -4 -19 -1 -8 3 -5 6 6 6 11 1 17 -2 13
-5z m519 -59 c40 -72 45 -96 8 -40 -15 22 -41 55 -58 73 -30 33 -31 34 -7 30
18 -2 33 -19 57 -63z m57 25 c8 -29 0 -24 -19 13 -14 27 -15 30 -2 19 9 -7 18
-22 21 -32z m-163 20 c0 -5 -2 -10 -4 -10 -3 0 -8 5 -11 10 -3 6 -1 10 4 10 6
0 11 -4 11 -10z m120 -143 c34 -55 58 -102 54 -105 -4 -4 -9 -1 -11 6 -3 7
-20 33 -38 56 -18 24 -36 54 -40 67 -10 31 -55 99 -66 99 -5 0 -9 8 -9 18 0
24 33 -18 110 -141z m898 128 c-3 -3 -13 -2 -22 1 -14 5 -15 9 -4 15 13 8 36
-6 26 -16z m-1254 0 c-4 -8 -10 -15 -15 -15 -4 0 -6 7 -3 15 4 8 10 15 15 15
4 0 6 -7 3 -15z m-324 -5 c0 -5 -5 -10 -11 -10 -5 0 -7 5 -4 10 3 6 8 10 11
10 2 0 4 -4 4 -10z m108 -12 c-10 -15 -27 -24 -49 -26 l-34 -2 28 25 c15 14
37 25 49 25 19 0 19 -2 6 -22z m831 1 c6 8 16 8 39 0 18 -6 32 -13 32 -16 0
-8 -124 -172 -130 -173 -11 0 10 183 22 197 10 12 13 12 21 -3 6 -11 12 -13
16 -5z m431 -30 c0 -4 -7 -12 -17 -17 -12 -7 -22 -3 -40 18 -31 38 -29 41 17
23 22 -9 40 -20 40 -24z m-1410 26 c0 -3 -17 -12 -37 -22 -59 -26 -61 -26 -18
1 39 25 55 31 55 21z m1760 -26 c0 -4 -7 -6 -15 -3 -8 4 -15 10 -15 15 0 4 7
6 15 3 8 -4 15 -10 15 -15z m-1332 -2 c8 -10 5 -13 -15 -15 -22 -2 -24 0 -13
13 15 18 15 18 28 2z m-428 -1 c0 -2 -7 -7 -16 -10 -8 -3 -12 -2 -9 4 6 10 25
14 25 6z m535 -6 c3 -5 -1 -10 -10 -10 -9 0 -13 5 -10 10 3 6 8 10 10 10 2 0
7 -4 10 -10z m611 -28 c22 -15 56 -42 75 -59 l34 -33 -60 -60 c-40 -40 -73
-64 -98 -71 -25 -7 -63 -34 -111 -80 -40 -38 -77 -69 -81 -69 -11 0 5 131 19
156 19 35 170 244 176 244 3 0 23 -12 46 -28z m-736 -7 c0 -8 -7 -15 -15 -15
-16 0 -20 12 -8 23 11 12 23 8 23 -8z m38 3 c-6 -18 -28 -21 -28 -4 0 9 7 16
16 16 9 0 14 -5 12 -12z m333 -91 c-9 -23 -8 -26 -26 83 -3 16 3 9 15 -18 13
-29 17 -49 11 -65z m-441 83 c0 -5 -2 -10 -4 -10 -3 0 -8 5 -11 10 -3 6 -1 10
4 10 6 0 11 -4 11 -10z m30 1 c0 -6 -4 -13 -10 -16 -5 -3 -10 1 -10 9 0 9 5
16 10 16 6 0 10 -4 10 -9z m35 -31 c3 -5 -1 -10 -9 -10 -9 0 -16 5 -16 10 0 6
4 10 9 10 6 0 13 -4 16 -10z m88 -4 c8 -20 -4 -57 -16 -53 -18 6 -31 33 -24
51 8 20 33 21 40 2z m124 -58 c-3 -8 -6 -5 -6 6 -1 11 2 17 5 13 3 -3 4 -12 1
-19z m-84 -14 c-4 -10 -9 -12 -15 -6 -12 12 -1 35 12 27 5 -3 6 -13 3 -21z
m157 -17 c0 -14 3 -17 8 -10 5 8 17 3 40 -15 31 -26 32 -30 26 -75 -8 -54 -16
-55 -55 -6 -29 36 -55 150 -30 135 6 -4 11 -17 11 -29z m-965 13 c-3 -5 -11
-10 -16 -10 -5 0 -32 -16 -60 -35 -28 -19 -58 -35 -66 -35 -8 0 -12 -4 -9 -9
8 -12 -11 -26 -59 -45 l-40 -16 30 27 c17 14 28 29 25 32 -2 3 19 15 48 27 29
11 58 28 65 38 7 9 26 20 42 25 41 13 47 13 40 1z m840 -20 c3 -5 1 -10 -4
-10 -6 0 -11 5 -11 10 0 6 2 10 4 10 3 0 8 -4 11 -10z m-655 -60 c0 -5 -2 -10
-4 -10 -3 0 -8 5 -11 10 -3 6 -1 10 4 10 6 0 11 -4 11 -10z m105 -39 c3 -5 1
-12 -4 -15 -5 -3 -11 1 -15 9 -6 16 9 21 19 6z m470 -47 c31 -37 40 -60 53
-130 18 -92 32 -110 32 -39 0 40 2 45 21 42 12 -2 30 -14 41 -28 l20 -24 -6
33 c-3 18 -2 31 3 28 5 -3 12 -25 16 -48 6 -31 9 -37 12 -20 3 12 8 22 13 22
15 0 19 -30 8 -58 -6 -15 -14 -72 -17 -126 l-6 -99 -65 -24 c-167 -63 -244
-77 -420 -77 -130 0 -185 4 -260 21 -86 19 -233 69 -269 92 -7 5 -19 46 -27
92 -19 117 -16 127 10 34 21 -76 41 -125 52 -125 2 0 2 11 -2 25 -3 14 -3 37
1 52 l6 26 21 -34 c28 -46 33 -23 8 36 -11 26 -18 56 -14 67 8 25 -14 114 -31
128 -12 10 -13 5 -9 -27 4 -29 3 -34 -5 -23 -14 19 -14 41 0 76 9 26 13 21 65
-102 31 -71 60 -133 66 -139 10 -10 7 39 -7 112 -4 20 1 15 17 -17 l22 -45 8
64 c13 111 21 116 63 34 34 -68 45 -52 21 31 -30 102 -18 102 47 0 27 -42 50
-74 52 -72 3 2 1 36 -3 76 -5 40 -7 72 -6 72 1 0 19 -25 39 -55 41 -60 54 -68
53 -32 -1 12 -1 40 1 62 l2 40 25 -48 c20 -39 27 -45 38 -35 12 11 12 18 -1
48 -19 44 -34 93 -29 97 1 2 18 -29 36 -69 18 -40 40 -82 48 -93 13 -18 14
-16 8 27 -3 26 -15 73 -26 104 -11 32 -18 60 -15 62 9 9 65 -93 86 -156 17
-52 23 -61 31 -48 5 10 7 23 4 31 -3 9 0 12 9 8 18 -6 12 33 -16 115 -9 28
-15 52 -13 52 3 0 26 -44 51 -97 26 -53 49 -90 51 -83 3 8 12 21 20 29 12 12
13 32 9 98 -7 99 2 105 58 37z m-1110 6 c-16 -16 -31 -28 -33 -25 -7 7 39 55
52 55 5 0 -3 -13 -19 -30z m391 -32 c3 -7 -6 -1 -20 15 -15 15 -24 32 -20 38
3 6 12 0 19 -15 8 -14 17 -32 21 -38z m271 26 c-9 -9 -28 6 -21 18 4 6 10 6
17 -1 6 -6 8 -13 4 -17z m-362 6 c-3 -5 -12 -10 -18 -10 -7 0 -6 4 3 10 19 12
23 12 15 0z m-240 -10 c-3 -5 -16 -15 -28 -21 -19 -9 -19 -8 3 10 28 23 34 26
25 11z m174 -17 c-13 -15 -12 -15 8 -5 35 19 36 14 6 -23 -16 -19 -56 -48 -90
-65 -34 -17 -67 -37 -73 -45 -7 -8 14 1 46 20 32 19 64 35 73 35 8 0 36 24 63
53 27 28 47 47 44 41 -16 -32 -29 -70 -27 -77 3 -15 -101 -267 -110 -267 -6 0
-8 -4 -5 -9 4 -5 -3 -7 -14 -4 -26 7 -25 13 8 41 15 13 20 20 12 16 -8 -4 -23
-13 -32 -21 -13 -12 -21 -12 -40 -2 -38 20 -128 91 -128 100 0 14 91 98 123
115 15 8 27 17 27 20 0 7 -58 -24 -65 -36 -3 -5 -11 -10 -17 -10 -6 0 -3 10 8
23 l19 22 -22 -19 c-13 -10 -20 -22 -18 -26 2 -4 -4 -15 -15 -25 -11 -10 -20
-15 -20 -10 0 4 -7 2 -15 -5 -8 -7 -13 -16 -10 -20 11 -17 -24 -17 -40 0 -15
17 -13 21 47 69 35 28 82 61 105 72 24 11 45 25 49 30 3 5 10 7 15 3 5 -3 17
0 26 8 15 12 15 11 4 -10 -12 -22 -11 -22 11 -10 13 7 27 19 31 26 4 6 13 12
19 12 6 0 5 -7 -3 -17z m460 -48 c0 -18 -1 -17 -13 5 -8 14 -12 29 -9 33 8 12
23 -14 22 -38z m-744 -27 c-33 -35 -61 -65 -64 -68 -2 -3 4 10 15 29 10 18 30
41 42 52 14 11 21 23 16 30 -4 7 -3 9 2 6 6 -3 16 -2 24 4 28 17 23 8 -35 -53z
m25 -13 c0 -2 -10 -9 -22 -15 -22 -11 -22 -10 -4 4 21 17 26 19 26 11z m1760
-19 c-5 -14 -30 -57 -56 -95 -42 -64 -48 -69 -60 -53 -17 22 -18 43 -1 37 7
-3 34 26 62 65 50 72 72 89 55 46z m6613 -83 c-7 -2 -19 -2 -25 0 -7 3 -2 5
12 5 14 0 19 -2 13 -5z m67 -43 c-12 -8 -12 -10 -1 -10 8 0 12 -2 9 -5 -3 -3
-13 -2 -22 1 -14 5 -15 9 -4 15 7 5 18 9 23 9 6 0 3 -5 -5 -10z m-8109 -63
c-8 -8 -11 -5 -11 10 0 12 -3 30 -6 40 -3 10 2 5 11 -11 12 -20 14 -31 6 -39z
m9359 -18 c-6 -30 -12 -70 -15 -91 -5 -31 -29 -57 -41 -45 -5 4 21 94 43 155
21 55 25 49 13 -19z m-8063 35 c2 -6 -8 -16 -22 -22 -22 -10 -25 -9 -25 7 0
10 3 21 7 25 10 9 36 3 40 -10z m-1358 -97 c0 -10 -3 -15 -9 -12 -5 3 -9 25
-9 48 1 40 2 40 9 12 4 -16 8 -38 9 -48z m9152 -105 c1 -40 -1 -75 -4 -79 -4
-3 -7 31 -7 77 0 101 8 103 11 2z m-582 44 c-2 -2 -22 -6 -44 -9 -27 -4 -35
-3 -25 3 14 9 79 15 69 6z m918 -2 c-3 -3 -12 -4 -19 -1 -8 3 -5 6 6 6 11 1
17 -2 13 -5z m-113 -75 c-3 -5 -10 -7 -15 -3 -5 3 -7 10 -3 15 3 5 10 7 15 3
5 -3 7 -10 3 -15z m-7 -65 c-21 -14 -41 -24 -43 -21 -6 5 56 45 71 46 5 1 -8
-11 -28 -25z m-207 -28 c0 -3 -4 -8 -10 -11 -5 -3 -10 -1 -10 4 0 6 5 11 10
11 6 0 10 -2 10 -4z m213 -30 c3 -8 -4 -22 -16 -33 l-22 -18 19 23 c11 12 14
22 9 22 -6 0 -16 -7 -23 -15 -7 -8 -17 -15 -23 -15 -6 0 0 11 13 25 27 29 36
31 43 11z m-88 -6 c-3 -5 -11 -10 -16 -10 -6 0 -7 5 -4 10 3 6 11 10 16 10 6
0 7 -4 4 -10z m392 -16 c-3 -3 -12 -4 -19 -1 -8 3 -5 6 6 6 11 1 17 -2 13 -5z
m-1980 -141 c7 -10 18 -26 24 -37 17 -28 -6 -11 -31 24 -23 32 -17 42 7 13z
m297 -9 c3 -8 2 -12 -4 -9 -6 3 -10 10 -10 16 0 14 7 11 14 -7z m-407 -39 c63
-58 43 -58 -22 0 -27 24 -45 44 -38 45 6 0 33 -20 60 -45z m250 23 c-3 -8 -6
-5 -6 6 -1 11 2 17 5 13 3 -3 4 -12 1 -19z m-292 -42 c57 -50 40 -50 -32 0
-34 23 -57 45 -50 47 15 5 32 -4 82 -47z m245 29 c4 3 6 -5 2 -17 -5 -21 -6
-21 -13 -2 -4 10 -8 24 -8 29 1 6 3 4 6 -3 2 -6 8 -10 13 -7z m-1916 -5 c17
-6 36 -30 57 -72 52 -104 111 -152 204 -164 44 -7 44 -7 54 -58 15 -75 29
-171 26 -174 -4 -5 -11 21 -25 88 -11 59 -42 120 -61 120 -7 0 -8 -7 -4 -17 4
-10 9 -27 11 -38 2 -11 -1 -8 -6 7 -10 24 -40 47 -40 30 0 -4 7 -49 15 -101 9
-52 13 -96 11 -99 -7 -6 -12 10 -26 88 -6 36 -20 84 -30 108 -20 45 -44 58
-34 18 3 -14 1 -33 -5 -43 -9 -16 -10 -16 -11 7 0 22 -1 23 -16 8 -11 -11 -17
-37 -18 -89 -2 -53 -6 -74 -16 -74 -14 0 -19 8 -46 73 -22 53 -64 98 -75 80
-4 -6 -6 -15 -4 -18 1 -3 10 -29 19 -58 l15 -53 -32 7 c-17 3 -43 19 -58 35
-15 16 -35 29 -46 29 -16 -1 -17 -1 -1 -10 23 -14 62 -70 48 -70 -6 0 -19 14
-28 30 -9 17 -23 28 -29 25 -8 -2 -23 15 -37 43 -13 26 -61 99 -105 161 -45
63 -80 115 -79 117 2 2 38 10 79 19 42 8 100 24 130 34 60 22 125 26 163 11z
m1575 -11 c18 -11 31 -22 28 -25 -4 -5 -77 34 -77 42 0 9 16 3 49 -17z m-46
-14 c20 -10 37 -22 37 -27 0 -11 -16 -10 -38 1 -9 5 -25 12 -34 15 -10 3 -18
13 -18 22 0 8 3 14 8 12 4 -2 24 -12 45 -23z m408 -8 c-8 -8 -11 -7 -11 4 0
20 13 34 18 19 3 -7 -1 -17 -7 -23z m-140 6 c13 -16 12 -17 -3 -4 -10 7 -18
15 -18 17 0 8 8 3 21 -13z m79 -8 c7 -9 8 -15 2 -15 -5 0 -12 7 -16 15 -3 8
-4 15 -2 15 2 0 9 -7 16 -15z m-405 -14 c7 -12 -12 -24 -25 -16 -11 7 -4 25
10 25 5 0 11 -4 15 -9z m179 -20 c-2 -3 -12 3 -22 13 -16 17 -16 18 5 5 12 -7
20 -15 17 -18z m276 9 c0 -5 -4 -10 -10 -10 -5 0 -10 5 -10 10 0 6 5 10 10 10
6 0 10 -4 10 -10z m125 0 c3 -5 2 -10 -4 -10 -5 0 -13 5 -16 10 -3 6 -2 10 4
10 5 0 13 -4 16 -10z m-531 -21 c-3 -5 -17 -9 -32 -9 -24 0 -25 1 -7 14 20 14
49 11 39 -5z m134 -27 c44 -33 34 -39 -13 -7 -21 14 -41 25 -45 25 -4 0 -10 7
-14 15 -5 13 -2 14 17 4 12 -7 37 -23 55 -37z m196 -54 c22 -39 13 -30 -39 37
-33 42 -34 46 -10 23 17 -15 39 -42 49 -60z m177 69 c-1 -12 -15 -9 -19 4 -3
6 1 10 8 8 6 -3 11 -8 11 -12z m-448 -11 c17 -13 17 -15 -4 -29 -19 -14 -36
-14 -63 1 -5 3 2 13 15 23 29 22 29 22 52 5z m221 -55 c-6 -6 -64 54 -64 65 0
5 16 -7 35 -26 19 -18 32 -36 29 -39z m-78 37 l19 -23 -25 20 c-14 11 -27 21
-29 22 -2 2 0 3 6 3 5 0 18 -10 29 -22z m152 -13 c-3 -3 -9 2 -12 12 -6 14 -5
15 5 6 7 -7 10 -15 7 -18z m182 5 c0 -5 -4 -10 -10 -10 -5 0 -10 5 -10 10 0 6
5 10 10 10 6 0 10 -4 10 -10z m-423 -16 c4 -13 -37 -33 -55 -27 -8 3 -5 11 10
23 24 20 39 21 45 4z m304 -11 c-12 -20 -14 -14 -5 12 4 9 9 14 11 11 3 -2 0
-13 -6 -23z m-211 -8 c7 -8 8 -15 2 -15 -5 0 -15 7 -22 15 -7 8 -8 15 -2 15 5
0 15 -7 22 -15z m305 5 c3 -5 1 -10 -4 -10 -6 0 -11 5 -11 10 0 6 2 10 4 10 3
0 8 -4 11 -10z m-350 -20 c17 -19 17 -20 -1 -26 -11 -4 -22 -8 -25 -10 -3 -2
-16 4 -29 13 l-23 16 24 13 c32 17 33 17 54 -6z m-843 -5 c0 -5 -5 -11 -11
-13 -6 -2 -11 4 -11 13 0 9 5 15 11 13 6 -2 11 -8 11 -13z m1011 -21 c29 -39
15 -38 -16 1 -15 19 -22 32 -15 29 7 -3 21 -16 31 -30z m1890 -17 c-44 -62
-67 -111 -98 -210 -15 -48 -30 -86 -32 -83 -7 6 24 110 54 181 28 66 92 169
101 160 3 -3 -8 -24 -25 -48z m-2953 33 c0 -5 -5 -10 -11 -10 -5 0 -7 5 -4 10
3 6 8 10 11 10 2 0 4 -4 4 -10z m1380 6 c0 -2 -7 -9 -15 -16 -13 -11 -14 -10
-9 4 5 14 24 23 24 12z m-359 -23 c13 -16 12 -17 -3 -4 -10 7 -18 15 -18 17 0
8 8 3 21 -13z m-440 -16 c-10 -9 -11 -8 -5 6 3 10 9 15 12 12 3 -3 0 -11 -7
-18z m590 9 c12 7 11 -7 -1 -26 -6 -9 -10 -10 -10 -3 0 6 -2 17 -3 25 -2 7 -2
10 0 5 3 -4 9 -5 14 -1z m-1171 -6 c0 -5 -7 -7 -15 -4 -8 4 -15 8 -15 10 0 2
7 4 15 4 8 0 15 -4 15 -10z m40 -11 c0 -11 -4 -18 -10 -14 -5 3 -7 12 -3 20 7
21 13 19 13 -6z m56 -16 c-11 -11 -17 4 -9 23 7 18 8 18 11 1 2 -10 1 -21 -2
-24z m730 22 c18 -15 18 -15 -5 -13 -14 2 -26 9 -29 16 -5 17 10 15 34 -3z
m389 5 c3 -5 1 -10 -4 -10 -6 0 -11 5 -11 10 0 6 2 10 4 10 3 0 8 -4 11 -10z
m-232 -61 c-14 -5 -11 -8 15 -13 34 -8 42 -20 18 -29 -7 -3 -25 7 -40 22 -21
22 -23 30 -13 40 10 10 6 11 -18 6 -29 -7 -29 -7 -10 8 18 14 22 14 43 -6 21
-20 22 -22 5 -28z m53 19 l29 -33 -32 29 c-31 28 -38 36 -30 36 2 0 16 -15 33
-32z m-1443 -26 c4 -21 8 -80 11 -132 l5 -95 -10 75 c-6 41 -19 100 -30 132
-23 70 -23 67 0 61 12 -3 21 -17 24 -41z m102 31 c-13 -35 -25 -129 -25 -202
0 -100 -11 -83 -21 32 -4 51 -14 111 -22 134 -14 40 -13 42 7 46 52 10 68 8
61 -10z m171 -14 c24 -23 42 -25 24 -4 -17 20 -1 19 22 -2 22 -19 25 -41 3
-23 -8 7 -15 8 -15 3 0 -7 -15 -7 -42 -1 -76 16 -72 18 -69 -40 1 -29 -3 -68
-9 -87 -6 -20 -15 -66 -20 -103 -7 -55 -8 -37 -8 98 -1 201 0 189 -17 166 -15
-19 -15 -19 -15 3 0 22 2 23 63 16 39 -5 70 -14 83 -26z m1334 16 c0 -8 -4
-15 -10 -15 -5 0 -10 7 -10 15 0 8 5 15 10 15 6 0 10 -7 10 -15z m114 3 c-3
-4 -9 -8 -15 -8 -5 0 -9 4 -9 8 0 5 7 9 15 9 8 0 12 -4 9 -9z m226 3 c0 -6 -4
-13 -10 -16 -5 -3 -10 1 -10 9 0 9 5 16 10 16 6 0 10 -4 10 -9z m2135 -9 c-40
-34 -97 -74 -101 -69 -6 5 87 76 101 77 6 0 6 -3 0 -8z m-3585 -12 c0 -5 -4
-10 -10 -10 -5 0 -10 5 -10 10 0 6 5 10 10 10 6 0 10 -4 10 -10z m64 -1 c-4
-7 -7 -20 -8 -30 -1 -16 -16 -29 -16 -14 -1 18 14 55 22 55 5 0 6 -5 2 -11z
m456 1 c0 -5 -5 -10 -11 -10 -5 0 -7 5 -4 10 3 6 8 10 11 10 2 0 4 -4 4 -10z
m570 -20 c0 -5 -4 -10 -10 -10 -5 0 -10 5 -10 10 0 6 5 10 10 10 6 0 10 -4 10
-10z m2049 -30 c-12 -22 -25 -38 -27 -35 -5 4 37 75 44 75 3 0 -5 -18 -17 -40z
m-1949 9 c0 -6 -4 -7 -10 -4 -5 3 -10 11 -10 16 0 6 5 7 10 4 6 -3 10 -11 10
-16z m2507 -5 c-27 -14 -53 -24 -60 -21 -13 4 72 47 93 47 8 -1 -7 -12 -33
-26z m-2832 -4 c10 -11 14 -20 8 -20 -5 0 -18 9 -28 20 -10 11 -14 20 -8 20 5
0 18 -9 28 -20z m-355 2 c0 -5 -7 -17 -15 -28 -14 -18 -14 -18 -15 9 0 17 5
27 15 27 8 0 15 -4 15 -8z m660 -18 c0 -8 -4 -14 -9 -14 -11 0 -22 26 -14 34
9 9 23 -3 23 -20z m-1317 0 c19 -6 21 -13 8 -33 -12 -18 -42 -6 -35 14 3 8 1
15 -5 15 -7 0 -14 -7 -17 -15 -9 -22 -54 -19 -54 3 0 10 3 22 7 26 7 7 55 2
96 -10z m988 0 c10 -13 10 -17 -1 -24 -19 -12 -51 7 -44 25 8 19 28 19 45 -1z
m-701 -6 c0 -19 -18 -43 -25 -36 -4 3 -2 16 5 27 12 24 20 27 20 9z m474 -9
c-6 -11 -24 -2 -24 11 0 5 7 7 15 4 8 -4 12 -10 9 -15z m370 -12 c15 -19 26
-39 26 -45 0 -6 6 -12 13 -15 6 -2 9 -8 4 -13 -7 -7 -96 82 -97 99 -1 19 32 3
54 -26z m-687 1 c-3 -8 -6 -5 -6 6 -1 11 2 17 5 13 3 -3 4 -12 1 -19z m2160
-7 c-6 -17 -14 -28 -18 -26 -10 7 -150 -22 -191 -40 -40 -16 -51 -5 -18 18 11
8 17 17 14 20 -13 13 129 55 188 56 36 1 36 1 25 -28z m972 14 c-9 -9 -23 -13
-33 -9 -14 5 -15 9 -4 15 7 5 22 9 33 9 17 0 18 -2 4 -15z m51 5 c0 -5 -4 -10
-10 -10 -5 0 -10 5 -10 10 0 6 5 10 10 10 6 0 10 -4 10 -10z m268 -6 c-16 -8
-38 -12 -53 -8 -39 10 -19 24 33 24 l47 -1 -27 -15z m-3820 -14 c15 0 15 -2
-1 -17 -21 -21 -44 -4 -32 24 5 12 9 14 12 6 3 -7 12 -13 21 -13z m987 0 c10
-11 16 -20 13 -20 -3 0 -13 9 -23 20 -10 11 -16 20 -13 20 3 0 13 -9 23 -20z
m-2851 -17 c88 -113 158 -182 203 -199 27 -9 57 -26 69 -36 21 -18 21 -19 3
-101 -10 -45 -23 -117 -28 -159 -12 -93 -39 -149 -84 -177 -19 -11 -70 -58
-114 -103 -45 -46 -103 -104 -131 -129 -31 -28 -52 -57 -57 -77 l-7 -32 -1414
0 -1414 0 1 23 c2 59 7 62 125 63 96 1 119 4 194 32 47 17 130 38 186 46 55 8
126 25 157 36 122 46 259 161 377 319 92 121 161 175 265 208 52 16 89 18 280
15 360 -5 558 24 850 125 88 30 237 81 330 113 94 33 174 59 179 60 4 0 18
-12 30 -27z m2819 8 c-2 -6 5 -11 14 -11 12 0 14 -3 6 -11 -8 -8 -17 -7 -34 2
-15 7 -19 14 -11 17 6 2 9 8 6 14 -4 6 -1 8 7 6 8 -3 13 -11 12 -17z m2407 11
c0 -5 -11 -14 -25 -20 -27 -12 -28 -12 -19 12 6 16 44 23 44 8z m-70 -6 c0 -3
-4 -8 -10 -11 -5 -3 -10 -1 -10 4 0 6 5 11 10 11 6 0 10 -2 10 -4z m455 -6
c-11 -5 -29 -9 -40 -9 -17 -1 -17 1 -5 9 8 5 26 9 40 9 23 0 23 -1 5 -9z
m-3895 -10 c0 -5 -7 -10 -15 -10 -8 0 -15 5 -15 10 0 6 7 10 15 10 8 0 15 -4
15 -10z m210 -11 c0 -12 -29 -24 -37 -16 -3 4 -3 13 0 21 6 16 37 11 37 -5z
m3410 12 c0 -11 -70 -65 -76 -58 -2 2 2 10 11 17 8 7 15 18 15 25 0 13 15 23
38 24 6 1 12 -3 12 -8z m-3560 -11 c0 -5 -4 -10 -10 -10 -5 0 -10 5 -10 10 0
6 5 10 10 10 6 0 10 -4 10 -10z m1278 -26 c-4 -3 -12 5 -18 18 -12 22 -12 22
6 6 10 -10 15 -20 12 -24z m2332 27 c0 -5 -11 -16 -25 -25 -29 -19 -33 -11 -8
16 17 19 33 24 33 9z m-3540 -17 c0 -2 -7 -4 -15 -4 -8 0 -15 4 -15 10 0 5 7
7 15 4 8 -4 15 -8 15 -10z m3282 -6 c-7 -7 -12 -8 -12 -2 0 14 12 26 19 19 2
-3 -1 -11 -7 -17z m74 6 c-3 -9 -6 -17 -6 -19 0 -1 -16 -15 -36 -30 l-36 -27
18 33 c24 47 76 84 60 43z m-3496 -18 c0 -14 -4 -28 -10 -31 -6 -4 -10 7 -10
24 0 17 5 31 10 31 6 0 10 -11 10 -24z m397 2 c-3 -8 -6 -5 -6 6 -1 11 2 17 5
13 3 -3 4 -12 1 -19z m689 7 c-11 -8 -25 -15 -30 -14 -6 0 -5 3 2 6 6 2 10 9
6 14 -3 5 5 9 18 9 22 -1 22 -1 4 -15z m119 -5 c10 -11 16 -20 13 -20 -3 0
-13 9 -23 20 -10 11 -16 20 -13 20 3 0 13 -9 23 -20z m1413 1 c-17 -28 -48
-34 -48 -11 0 17 7 20 53 29 4 0 2 -8 -5 -18z m-2567 -44 c-8 -8 -11 -4 -11
14 0 33 14 47 18 19 2 -12 -1 -27 -7 -33z m1668 44 c7 -5 9 -11 5 -14 -5 -3
-15 1 -22 9 -14 16 -5 18 17 5z m822 -10 c-11 -20 -68 -48 -78 -38 -11 12 34
42 85 56 1 1 -2 -7 -7 -18z m-3203 -11 c29 -27 28 -42 -1 -29 -29 13 -54 49
-34 49 7 0 23 -9 35 -20z m792 13 c-1 -21 -13 -53 -21 -53 -10 0 -12 43 -2 53
9 9 23 9 23 0z m196 -23 c24 -17 44 -35 44 -40 0 -6 8 -10 18 -11 11 0 12 -2
4 -6 -7 -3 -21 1 -30 9 -9 8 -38 25 -64 38 -26 13 -44 28 -42 32 9 14 24 9 70
-22z m849 13 c11 -6 17 -15 12 -19 -4 -4 -17 1 -29 12 -19 16 -20 16 -9 1 20
-26 7 -31 -26 -10 -25 16 -27 16 -14 0 8 -10 9 -17 3 -17 -17 0 -25 20 -13 33
12 16 49 16 76 0z m2061 -41 c-32 -32 -35 -16 -4 23 14 18 23 24 26 16 2 -7
-7 -25 -22 -39z m66 26 c-7 -7 -12 -8 -12 -2 0 14 12 26 19 19 2 -3 -1 -11 -7
-17z m118 18 c0 -3 -4 -8 -10 -11 -5 -3 -10 -1 -10 4 0 6 5 11 10 11 6 0 10
-2 10 -4z m-3249 -49 c-8 -8 -11 -5 -11 9 0 27 14 41 18 19 2 -9 -1 -22 -7
-28z m-524 1 c-3 -7 -5 -2 -5 12 0 14 2 19 5 13 2 -7 2 -19 0 -25z m836 0 c-7
-40 -11 -44 -23 -32 -12 12 -3 44 12 44 5 0 6 5 3 10 -3 6 -2 10 4 10 6 0 8
-13 4 -32z m802 12 c10 -11 14 -20 9 -20 -5 0 -15 9 -22 20 -7 11 -11 20 -9
20 2 0 12 -9 22 -20z m185 -5 c-7 -9 -15 -13 -18 -10 -3 2 1 11 8 20 7 9 15
13 18 10 3 -2 -1 -11 -8 -20z m-1020 11 c0 -3 -4 -8 -10 -11 -5 -3 -10 -1 -10
4 0 6 5 11 10 11 6 0 10 -2 10 -4z m277 -18 c-3 -8 -6 -5 -6 6 -1 11 2 17 5
13 3 -3 4 -12 1 -19z m503 2 c8 -16 8 -20 -4 -20 -8 0 -17 4 -21 10 -3 5 -12
7 -20 3 -8 -3 -15 0 -15 7 0 6 5 8 10 5 6 -3 10 -1 10 4 0 19 29 12 40 -9z
m1356 -19 c-6 -22 -15 -43 -19 -47 -11 -11 -8 45 3 67 18 33 28 21 16 -20z
m-2326 19 c0 -5 -4 -10 -10 -10 -5 0 -10 5 -10 10 0 6 5 10 10 10 6 0 10 -4
10 -10z m830 0 c0 -5 -2 -10 -4 -10 -3 0 -8 5 -11 10 -3 6 -1 10 4 10 6 0 11
-4 11 -10z m1353 3 c-7 -2 -19 -2 -25 0 -7 3 -2 5 12 5 14 0 19 -2 13 -5z m72
-25 c-8 -37 -26 -68 -38 -68 -4 0 -6 4 -2 9 8 14 -62 34 -91 27 -37 -10 -22 8
23 26 21 9 49 20 63 26 44 19 52 15 45 -20z m779 10 c-13 -44 -39 -98 -46 -98
-7 0 13 65 32 99 14 28 23 27 14 -1z m-3255 -68 c-14 -104 -20 -111 -13 -15 6
75 11 101 19 93 2 -2 -1 -37 -6 -78z m3205 53 c-4 -16 -15 -42 -25 -59 -10
-17 -16 -34 -12 -38 4 -4 -1 -4 -12 0 -10 4 -14 9 -8 11 7 3 9 11 6 19 -4 12
42 94 54 94 2 0 0 -12 -3 -27z m-3134 8 c0 -6 -4 -13 -10 -16 -5 -3 -10 1 -10
9 0 9 5 16 10 16 6 0 10 -4 10 -9z m171 -15 c-12 -15 -41 -11 -41 4 0 8 41 19
49 13 2 -1 -2 -9 -8 -17z m895 -4 c-4 -3 -14 2 -24 12 -16 18 -16 18 6 6 13
-6 21 -14 18 -18z m-1881 8 c3 -5 2 -10 -4 -10 -5 0 -13 5 -16 10 -3 6 -2 10
4 10 5 0 13 -4 16 -10z m875 6 c0 -3 -4 -8 -10 -11 -5 -3 -10 -1 -10 4 0 6 5
11 10 11 6 0 10 -2 10 -4z m360 -21 c0 -8 -4 -15 -10 -15 -5 0 -7 7 -4 15 4 8
8 15 10 15 2 0 4 -7 4 -15z m610 5 c8 -5 12 -11 9 -14 -3 -3 -14 1 -25 9 -21
16 -8 20 16 5z m120 0 c0 -5 -4 -10 -10 -10 -5 0 -10 5 -10 10 0 6 5 10 10 10
6 0 10 -4 10 -10z m920 6 c0 -2 -7 -6 -15 -10 -8 -3 -15 -1 -15 4 0 6 7 10 15
10 8 0 15 -2 15 -4z m164 -5 c3 -4 -6 -13 -20 -20 -38 -17 -52 -13 -25 9 25
22 37 25 45 11z m786 5 c0 -2 -8 -10 -17 -17 -16 -13 -17 -12 -4 4 13 16 21
21 21 13z m-2808 -28 c-7 -7 -12 -8 -12 -2 0 14 12 26 19 19 2 -3 -1 -11 -7
-17z m114 -6 c-4 -3 -14 2 -24 12 -16 18 -16 18 6 6 13 -6 21 -14 18 -18z
m948 13 c-4 -8 -8 -15 -10 -15 -2 0 -4 7 -4 15 0 8 4 15 10 15 5 0 7 -7 4 -15z
m-1774 -16 c0 -6 -4 -7 -10 -4 -5 3 -10 11 -10 16 0 6 5 7 10 4 6 -3 10 -11
10 -16z m486 -6 c-10 -10 -19 5 -10 18 6 11 8 11 12 0 2 -7 1 -15 -2 -18z
m169 17 c3 -5 2 -10 -3 -10 -6 0 -9 -7 -8 -16 0 -9 -5 -19 -12 -21 -9 -3 -12
5 -10 26 2 30 20 41 33 21z m2000 0 c-3 -5 -14 -10 -23 -10 -15 0 -15 2 -2 10
20 13 33 13 25 0z m-2945 -30 c0 -15 -5 -12 -26 11 -19 22 -19 22 4 10 12 -6
22 -16 22 -21z m47 18 c11 -19 13 -38 3 -38 -10 0 -24 19 -26 38 -1 6 2 12 6
12 5 0 12 -6 17 -12z m343 -10 c0 -19 -2 -20 -10 -8 -13 19 -13 30 0 30 6 0
10 -10 10 -22z m444 7 c-4 -8 -8 -15 -10 -15 -2 0 -4 7 -4 15 0 8 4 15 10 15
5 0 7 -7 4 -15z m231 5 c3 -5 -1 -10 -9 -10 -9 0 -16 5 -16 10 0 6 4 10 9 10
6 0 13 -4 16 -10z m1020 -19 c-9 -16 -25 -3 -18 15 4 10 9 12 15 6 6 -6 7 -15
3 -21z m-1938 -10 c3 -21 1 -22 -13 -10 -11 9 -13 14 -4 17 9 3 9 7 -1 14 -12
8 -12 9 0 6 8 -2 16 -15 18 -27z m2747 23 c16 -6 12 -24 -5 -24 -6 0 -8 4 -5
9 4 5 0 12 -6 14 -7 3 -10 6 -6 6 3 1 13 -2 22 -5z m216 -4 c0 -5 -24 -11 -52
-12 l-53 -1 50 -7 c28 -4 41 -8 31 -8 -11 -1 -16 -5 -13 -9 9 -8 -24 -32 -43
-32 -8 0 -5 4 8 9 36 15 26 27 -29 34 -50 7 -56 19 -14 29 38 9 115 7 115 -3z
m734 -14 c-3 -9 -10 -16 -15 -16 -6 0 -5 9 1 21 13 24 24 20 14 -5z m-2644 4
c0 -5 -2 -10 -4 -10 -3 0 -8 5 -11 10 -3 6 -1 10 4 10 6 0 11 -4 11 -10z m750
-5 c7 -9 10 -19 6 -23 -4 -4 -12 1 -17 11 -6 9 -15 14 -21 11 -7 -4 -8 -2 -4
4 10 16 21 15 36 -3z m-833 -15 c20 -15 22 -20 9 -20 -18 0 -76 27 -76 35 0
13 45 3 67 -15z m480 14 c-3 -3 -12 -4 -19 -1 -8 3 -5 6 6 6 11 1 17 -2 13 -5z
m1333 -9 c-7 -8 -17 -15 -22 -15 -6 0 -5 7 2 15 7 8 17 15 22 15 6 0 5 -7 -2
-15z m770 5 c0 -5 -5 -10 -11 -10 -5 0 -7 5 -4 10 3 6 8 10 11 10 2 0 4 -4 4
-10z m100 1 c0 -5 -7 -17 -16 -25 -11 -12 -12 -16 -2 -16 7 0 4 -9 -9 -22 -13
-12 -25 -19 -28 -16 -3 3 1 13 10 22 9 9 14 16 10 16 -3 0 2 11 11 25 17 26
24 31 24 16z m-3035 -68 c-10 -42 -18 -18 -9 29 6 32 9 37 12 19 2 -12 1 -34
-3 -48z m218 52 c-3 -9 -8 -14 -10 -11 -3 3 -2 9 2 15 9 16 15 13 8 -4z
m-1027 -22 c-7 -7 -26 7 -26 19 0 6 6 6 15 -2 9 -7 13 -15 11 -17z m670 -10
c-11 -11 -19 6 -11 24 8 17 8 17 12 0 3 -10 2 -21 -1 -24z m454 21 c0 -2 -7
-4 -15 -4 -8 0 -15 4 -15 10 0 5 7 7 15 4 8 -4 15 -8 15 -10z m1719 -16 c-12
-21 -13 -21 -17 -4 -2 10 2 22 9 27 20 12 22 4 8 -23z m-1879 12 c0 -5 -4 -10
-10 -10 -5 0 -10 5 -10 10 0 6 5 10 10 10 6 0 10 -4 10 -10z m2902 -12 c-7 -7
-12 -8 -12 -2 0 14 12 26 19 19 2 -3 -1 -11 -7 -17z m-3767 2 c3 -6 -1 -7 -9
-4 -18 7 -21 14 -7 14 6 0 13 -4 16 -10z m55 -21 c0 -6 -4 -7 -10 -4 -5 3 -10
11 -10 16 0 6 5 7 10 4 6 -3 10 -11 10 -16z m988 9 c-7 -4 -9 -8 -5 -8 5 0 5
-5 2 -10 -4 -7 -13 -7 -26 0 -28 16 -23 27 11 27 20 0 26 -3 18 -9z m92 -23
c18 -19 31 -38 27 -42 -4 -3 -7 -1 -7 5 0 7 -4 12 -9 12 -6 0 -8 -9 -6 -20 2
-13 -2 -20 -11 -20 -8 0 -14 5 -14 10 0 6 4 10 9 10 14 0 7 30 -9 40 -8 5 -23
4 -34 -1 -18 -9 -19 -8 -5 3 9 7 14 19 12 26 -8 22 13 12 47 -23z m1580 14 c0
-5 -4 -9 -10 -9 -5 0 -10 7 -10 16 0 8 5 12 10 9 6 -3 10 -10 10 -16z m920 6
c0 -8 -9 -24 -20 -35 -11 -11 -15 -20 -9 -20 5 0 7 -4 4 -10 -3 -5 -10 -10
-15 -10 -11 0 -1 61 12 78 14 16 28 15 28 -3z m40 5 c0 -5 -5 -10 -11 -10 -5
0 -7 5 -4 10 3 6 8 10 11 10 2 0 4 -4 4 -10z m-3584 -38 c-22 -5 -30 3 -21 18
5 8 11 7 22 -2 15 -12 14 -13 -1 -16z m766 3 c-2 -14 -9 -25 -14 -25 -6 0 -7
7 -4 16 3 9 6 20 6 25 0 5 4 9 9 9 4 0 6 -11 3 -25z m1828 15 c0 -5 -4 -10
-10 -10 -5 0 -10 5 -10 10 0 6 5 10 10 10 6 0 10 -4 10 -10z m-2756 -49 c40
-60 27 -60 -18 0 -21 28 -32 49 -25 47 8 -3 27 -24 43 -47z m2916 40 c-8 -5
-26 -11 -40 -15 -21 -5 -20 -3 5 9 32 15 60 20 35 6z m-2846 -17 c3 -8 2 -12
-4 -9 -6 3 -10 10 -10 16 0 14 7 11 14 -7z m909 -4 c-3 -12 -8 -19 -11 -16 -5
6 5 36 12 36 2 0 2 -9 -1 -20z m107 10 c0 -5 -4 -10 -10 -10 -5 0 -10 5 -10
10 0 6 5 10 10 10 6 0 10 -4 10 -10z m1904 0 c-5 -5 -25 -12 -44 -15 l-35 -5
30 14 c35 18 64 21 49 6z m746 0 c0 -5 -4 -10 -10 -10 -5 0 -10 5 -10 10 0 6
5 10 10 10 6 0 10 -4 10 -10z m-3763 -42 c17 -24 19 -34 10 -40 -7 -5 2 -8 23
-9 44 -1 82 -8 89 -16 3 -3 -12 -3 -34 0 -22 4 -61 7 -87 7 -38 0 -48 4 -48
16 0 14 2 15 17 3 15 -13 15 -12 5 8 -18 33 -14 38 10 17 22 -19 22 -19 -1 14
-12 17 -19 32 -14 32 4 0 18 -15 30 -32z m1177 17 c-7 -16 -24 -21 -24 -6 0 8
7 13 27 20 1 1 0 -6 -3 -14z m2478 -10 c-2 -14 -8 -25 -13 -25 -12 0 -11 7 1
31 14 26 18 24 12 -6z m-2552 -5 c0 -11 -4 -20 -9 -20 -5 0 -7 9 -4 20 3 11 7
20 9 20 2 0 4 -9 4 -20z m2636 -15 c-39 -34 -56 -43 -56 -27 0 8 79 62 90 62
3 -1 -13 -16 -34 -35z m-3551 5 c3 -5 2 -10 -4 -10 -5 0 -13 5 -16 10 -3 6 -2
10 4 10 5 0 13 -4 16 -10z m752 -22 c-3 -7 -5 -2 -5 12 0 14 2 19 5 13 2 -7 2
-19 0 -25z m358 22 c3 -5 2 -10 -4 -10 -5 0 -13 5 -16 10 -3 6 -2 10 4 10 5 0
13 -4 16 -10z m-140 -29 c-9 -16 -25 -3 -18 15 4 10 9 12 15 6 6 -6 7 -15 3
-21z m195 14 c7 -9 8 -15 2 -15 -5 0 -12 7 -16 15 -3 8 -4 15 -2 15 2 0 9 -7
16 -15z m-1115 -5 c3 -5 2 -10 -4 -10 -5 0 -13 5 -16 10 -3 6 -2 10 4 10 5 0
13 -4 16 -10z m752 -22 c-3 -7 -5 -2 -5 12 0 14 2 19 5 13 2 -7 2 -19 0 -25z
m288 22 c3 -5 1 -10 -4 -10 -6 0 -11 5 -11 10 0 6 2 10 4 10 3 0 8 -4 11 -10z
m2335 0 c0 -5 -5 -10 -11 -10 -5 0 -7 5 -4 10 3 6 8 10 11 10 2 0 4 -4 4 -10z
m-3466 -16 c3 -8 2 -12 -4 -9 -6 3 -10 10 -10 16 0 14 7 11 14 -7z m3489 -24
c-37 -39 -51 -44 -40 -15 5 12 63 55 75 55 1 0 -15 -18 -35 -40z m-3441 15 c3
3 11 -1 18 -10 7 -8 20 -15 29 -15 10 0 26 -7 37 -15 18 -14 17 -15 -11 -9
-16 4 -39 12 -50 18 -11 5 -23 9 -27 8 -4 -1 -13 8 -19 21 -11 19 -10 20 3 10
8 -7 17 -11 20 -8z m1113 -5 c3 -5 1 -10 -4 -10 -6 0 -11 5 -11 10 0 6 2 10 4
10 3 0 8 -4 11 -10z m2605 7 c0 -2 -18 -21 -40 -42 -22 -21 -40 -35 -40 -31 0
5 17 24 37 42 35 32 43 38 43 31z m-2503 -24 c7 -20 -12 -20 -29 -1 -17 17
-17 18 4 15 12 -2 24 -9 25 -14z m-1323 -9 c79 -7 162 -26 186 -41 63 -39 92
-66 80 -73 -7 -4 -12 -19 -12 -34 0 -16 -5 -23 -12 -19 -6 3 -6 0 2 -8 16 -18
15 -29 -3 -29 -10 0 -15 9 -14 28 1 34 -5 59 -16 69 -4 4 -5 2 -1 -4 4 -8 2
-13 -6 -13 -8 0 -20 6 -28 13 -8 6 -7 2 3 -9 17 -21 17 -21 -8 -17 -16 4 -25
1 -25 -7 0 -7 7 -10 15 -6 8 3 15 0 16 -7 0 -7 2 -22 5 -34 2 -13 -1 -23 -6
-23 -6 0 -10 9 -10 19 0 11 -15 30 -32 42 -18 12 -28 16 -21 9 6 -7 9 -18 7
-25 -3 -8 2 -12 12 -12 10 1 18 -7 20 -20 5 -31 -16 -29 -46 2 -13 14 -28 25
-34 25 -5 0 3 -13 19 -30 16 -16 25 -30 21 -30 -12 0 -66 47 -60 53 3 2 -2 7
-11 10 -23 10 -18 -1 18 -34 27 -25 30 -31 17 -40 -17 -11 -11 -11 70 13 74
21 350 17 433 -6 37 -10 67 -23 67 -27 0 -5 12 -9 28 -10 24 0 25 -1 7 -9 -16
-7 -11 -9 22 -9 51 -1 66 -18 21 -24 -26 -3 -22 -4 15 -5 32 -1 53 -8 67 -22
11 -11 23 -20 28 -20 4 -1 20 -11 35 -24 l29 -23 -53 -6 c-29 -4 -57 -11 -63
-17 -12 -12 11 -13 74 0 35 6 51 5 75 -8 l30 -17 -45 -6 c-25 -3 -34 -7 -21
-7 34 -3 21 -11 -30 -21 -39 -7 -34 -8 36 -8 52 1 70 3 50 8 -26 6 -27 7 -6 8
14 0 32 -6 42 -15 17 -16 17 -18 -4 -55 l-22 -39 -651 0 -652 0 34 98 c19 53
44 142 55 197 11 57 37 137 58 185 21 47 42 96 46 109 7 22 10 23 59 16 28 -4
69 -9 90 -11z m73 10 c-3 -3 -12 -4 -19 -1 -8 3 -5 6 6 6 11 1 17 -2 13 -5z
m183 -15 c0 -6 -4 -7 -10 -4 -5 3 -10 11 -10 16 0 6 5 7 10 4 6 -3 10 -11 10
-16z m782 -21 c-7 -7 -12 -8 -12 -2 0 14 12 26 19 19 2 -3 -1 -11 -7 -17z
m-644 -13 c-3 -3 -9 2 -12 12 -6 14 -5 15 5 6 7 -7 10 -15 7 -18z m-44 -1 c3
-8 2 -12 -4 -9 -6 3 -10 10 -10 16 0 14 7 11 14 -7z m3177 -27 c-14 -14 -14
-30 0 -21 7 4 9 0 5 -13 -4 -14 -2 -20 9 -20 9 0 15 9 15 23 0 13 5 26 10 29
6 4 10 -8 10 -28 0 -32 -3 -35 -37 -40 -44 -8 -51 -3 -32 19 10 12 11 18 3 21
-13 4 -7 40 10 62 9 12 12 11 14 -4 2 -9 -1 -22 -7 -28z m-3206 23 c3 -5 1
-10 -4 -10 -6 0 -11 5 -11 10 0 6 2 10 4 10 3 0 8 -4 11 -10z m1082 -16 c-9
-9 -28 6 -21 18 4 6 10 6 17 -1 6 -6 8 -13 4 -17z m-1122 -15 c31 -30 -4 -23
-40 7 -29 25 -29 25 -5 19 14 -4 34 -16 45 -26z m3191 1 c-4 -21 -2 -29 5 -24
7 4 9 -4 7 -22 -2 -19 -10 -30 -22 -32 -15 -3 -17 0 -11 14 4 11 7 36 6 57 -1
22 3 37 10 37 8 0 9 -10 5 -30z m-85 -7 c-8 -15 -10 -15 -11 -2 0 17 10 32 18
25 2 -3 -1 -13 -7 -23z m-3061 -5 c0 -6 -6 -5 -15 2 -8 7 -15 14 -15 16 0 2 7
1 15 -2 8 -4 15 -11 15 -16z m1065 12 c3 -5 2 -10 -4 -10 -5 0 -13 5 -16 10
-3 6 -2 10 4 10 5 0 13 -4 16 -10z m-35 -10 c0 -5 -2 -10 -4 -10 -3 0 -8 5
-11 10 -3 6 -1 10 4 10 6 0 11 -4 11 -10z m2050 -26 c0 -3 -5 -15 -11 -26 -8
-15 -8 -19 0 -14 6 4 11 2 11 -4 0 -12 -28 -25 -37 -17 -8 8 17 67 28 67 5 0
9 -3 9 -6z m-3092 -44 c-1 -22 -5 -40 -9 -40 -4 0 -6 12 -5 28 2 15 4 33 5 40
0 6 3 12 6 12 3 0 5 -18 3 -40z m3118 -8 c-12 -11 -18 7 -10 30 l8 23 4 -23
c2 -13 1 -26 -2 -30z m-3081 -8 c1 -14 -5 -24 -13 -24 -9 0 -12 6 -8 16 3 9 6
23 6 31 0 26 15 4 15 -23z m101 -5 c1 -19 -3 -29 -12 -29 -8 0 -14 9 -14 20 0
11 4 20 10 20 5 0 7 8 3 18 -4 10 -2 14 3 9 5 -5 9 -22 10 -38z m844 27 c0
-17 -14 -29 -23 -20 -8 8 3 34 14 34 5 0 9 -6 9 -14z m150 4 c0 -5 -2 -10 -4
-10 -3 0 -8 5 -11 10 -3 6 -1 10 4 10 6 0 11 -4 11 -10z m1910 -26 c0 -9 -70
-38 -76 -31 -1 1 4 13 11 27 12 20 14 21 15 7 0 -26 24 -15 28 13 3 18 6 20
13 9 5 -8 9 -19 9 -25z m-3146 -16 c4 -17 2 -28 -4 -28 -5 0 -10 14 -10 32 0
36 4 35 14 -4z m206 1 c0 -5 -4 -9 -10 -9 -5 0 -10 7 -10 16 0 8 5 12 10 9 6
-3 10 -10 10 -16z m2838 -30 c-18 -12 -22 5 -6 33 l13 23 3 -24 c2 -13 -2 -27
-10 -32z m-2968 20 c0 -5 -4 -9 -10 -9 -5 0 -10 7 -10 16 0 8 5 12 10 9 6 -3
10 -10 10 -16z m95 11 c3 -5 1 -10 -4 -10 -6 0 -11 5 -11 10 0 6 2 10 4 10 3
0 8 -4 11 -10z m115 1 c1 9 5 8 15 -5 15 -19 15 -19 15 -1 0 18 1 18 17 2 23
-23 13 -29 -36 -21 -27 4 -41 12 -41 22 0 12 3 12 15 2 12 -10 15 -10 15 1z
m155 -11 c3 -5 1 -10 -4 -10 -6 0 -11 5 -11 10 0 6 2 10 4 10 3 0 8 -4 11 -10z
m775 6 c0 -3 -4 -8 -10 -11 -5 -3 -10 -1 -10 4 0 6 5 11 10 11 6 0 10 -2 10
-4z m-799 -38 c23 -16 22 -16 -18 -6 -24 6 -43 14 -43 18 0 12 37 5 61 -12z
m2586 0 c-3 -8 -6 -5 -6 6 -1 11 2 17 5 13 3 -3 4 -12 1 -19z m-31 3 c-4 -5 0
-11 6 -13 8 -3 4 -9 -10 -17 -18 -9 -22 -9 -22 2 0 7 5 18 12 25 14 14 21 16
14 3z m-7626 -25 c0 -2 -11 -28 -25 -58 -40 -87 -43 -184 -8 -274 4 -12 -14
-14 -110 -14 l-116 0 6 113 c4 98 8 114 26 131 43 37 227 120 227 102z m5903
-21 c-3 -9 -8 -14 -10 -11 -3 3 -2 9 2 15 9 16 15 13 8 -4z m1687 11 c0 -3 -4
-8 -10 -11 -5 -3 -10 -1 -10 4 0 6 5 11 10 11 6 0 10 -2 10 -4z m-1350 -20 c0
-3 -4 -8 -10 -11 -5 -3 -10 -1 -10 4 0 6 5 11 10 11 6 0 10 -2 10 -4z m810
-26 c-24 -15 -36 -11 -14 4 10 8 21 12 24 10 2 -3 -2 -9 -10 -14z m-775 0 c-3
-5 -11 -10 -16 -10 -6 0 -7 5 -4 10 3 6 11 10 16 10 6 0 7 -4 4 -10z m56 -34
c5 3 9 0 9 -6 0 -7 -7 -9 -16 -6 -9 3 -18 6 -20 6 -3 0 -2 5 2 12 6 9 9 9 12
0 2 -7 8 -10 13 -6z m-60 -59 c-13 -13 -26 -3 -16 12 3 6 11 8 17 5 6 -4 6
-10 -1 -17z m-281 -22 c0 -8 -7 -15 -16 -15 -14 0 -14 3 -4 15 7 8 14 15 16
15 2 0 4 -7 4 -15z m310 -35 c0 -5 -4 -10 -10 -10 -5 0 -10 5 -10 10 0 6 5 10
10 10 6 0 10 -4 10 -10z m660 -5 c-7 -9 -15 -13 -19 -10 -3 3 1 10 9 15 21 14
24 12 10 -5z m-615 -15 c3 -5 -1 -10 -9 -10 -9 0 -16 5 -16 10 0 6 4 10 9 10
6 0 13 -4 16 -10z m386 -63 c-13 -13 -26 -3 -16 12 3 6 11 8 17 5 6 -4 6 -10
-1 -17z m119 -8 c0 -6 -4 -7 -10 -4 -5 3 -10 11 -10 16 0 6 5 7 10 4 6 -3 10
-11 10 -16z m-95 -9 c-3 -5 -11 -10 -16 -10 -6 0 -7 5 -4 10 3 6 11 10 16 10
6 0 7 -4 4 -10z m79 -39 c-5 -6 -33 31 -33 44 -1 6 8 -1 19 -15 10 -14 17 -27
14 -29z"/>
<path d="M3075 6880 c27 -12 43 -12 25 0 -8 5 -22 9 -30 9 -10 0 -8 -3 5 -9z"/>
<path d="M2970 6734 c14 -3 42 -9 64 -14 24 -5 35 -5 29 1 -5 5 -34 11 -64 14
-30 2 -43 2 -29 -1z"/>
<path d="M2890 6630 c8 -5 22 -10 30 -10 13 0 13 1 0 10 -8 5 -22 10 -30 10
-13 0 -13 -1 0 -10z"/>
<path d="M2948 6623 c6 -2 18 -2 25 0 6 3 1 5 -13 5 -14 0 -19 -2 -12 -5z"/>
<path d="M3005 6610 c28 -12 37 -12 30 0 -3 6 -16 10 -28 9 -21 0 -21 -1 -2
-9z"/>
<path d="M2871 6588 c-35 -4 -69 -12 -75 -18 -8 -8 -3 -9 19 -4 37 10 127 10
180 0 25 -5 36 -4 30 2 -19 18 -91 28 -154 20z"/>
<path d="M1545 4161 c-27 -16 -61 -42 -75 -57 -21 -24 -19 -23 14 5 22 19 62
44 90 57 28 13 44 24 36 24 -8 0 -37 -13 -65 -29z"/>
<path d="M1539 4023 l-24 -28 28 24 c25 23 32 31 24 31 -2 0 -14 -12 -28 -27z"/>
<path d="M10745 3100 c-27 -7 -28 -8 -5 -8 14 -1 43 3 65 7 l40 9 -35 0 c-19
0 -48 -4 -65 -8z"/>
<path d="M10670 3080 c-18 -12 -2 -12 25 0 13 6 15 9 5 9 -8 0 -22 -4 -30 -9z"/>
<path d="M7403 2643 c9 -2 25 -2 35 0 9 3 1 5 -18 5 -19 0 -27 -2 -17 -5z"/>
<path d="M7468 2643 c7 -3 16 -2 19 1 4 3 -2 6 -13 5 -11 0 -14 -3 -6 -6z"/>
<path d="M7630 2626 c0 -3 9 -10 20 -16 11 -6 20 -8 20 -6 0 3 -9 10 -20 16
-11 6 -20 8 -20 6z"/>
<path d="M7395 2590 c-27 -7 -28 -8 -5 -8 14 0 34 3 45 8 25 11 2 11 -40 0z"/>
<path d="M7478 2583 c7 -3 16 -2 19 1 4 3 -2 6 -13 5 -11 0 -14 -3 -6 -6z"/>
<path d="M7700 2586 c0 -2 8 -10 18 -17 15 -13 16 -12 3 4 -13 16 -21 21 -21
13z"/>
<path d="M7453 2513 c9 -2 25 -2 35 0 9 3 1 5 -18 5 -19 0 -27 -2 -17 -5z"/>
<path d="M7475 2430 c-3 -6 1 -7 9 -4 18 7 21 14 7 14 -6 0 -13 -4 -16 -10z"/>
<path d="M8445 2103 c-33 -7 -48 -13 -44 -18 3 -2 27 2 54 10 46 12 37 19 -10
8z"/>
<path d="M3268 7063 c6 -2 18 -2 25 0 6 3 1 5 -13 5 -14 0 -19 -2 -12 -5z"/>
<path d="M3253 7043 c9 -2 25 -2 35 0 9 3 1 5 -18 5 -19 0 -27 -2 -17 -5z"/>
<path d="M3338 7033 c7 -3 16 -2 19 1 4 3 -2 6 -13 5 -11 0 -14 -3 -6 -6z"/>
<path d="M3439 7021 c7 -5 9 -11 5 -13 -5 -3 -3 -3 4 -2 20 5 42 -7 35 -20 -3
-6 -3 -8 1 -5 4 4 19 -3 33 -15 69 -57 113 -100 113 -109 0 -6 -16 8 -36 31
-52 61 -157 109 -264 121 -46 5 -93 5 -104 1 -20 -8 -20 -9 -1 -9 44 -2 222
-52 280 -79 34 -16 78 -46 98 -66 21 -20 34 -29 31 -19 -4 12 1 9 15 -7 11
-14 21 -29 21 -34 0 -5 3 -7 6 -4 10 11 -34 85 -79 131 -41 42 -139 107 -162
107 -5 0 -4 -4 4 -9z"/>
<path d="M3204 6962 c4 -7 23 -12 42 -12 61 0 177 -31 251 -67 67 -33 118 -77
166 -143 17 -24 17 -24 0 8 -41 76 -146 156 -252 192 -73 24 -218 40 -207 22z"/>
<path d="M3198 6923 c6 -2 18 -2 25 0 6 3 1 5 -13 5 -14 0 -19 -2 -12 -5z"/>
<path d="M3315 6900 c11 -5 27 -9 35 -9 9 0 8 4 -5 9 -11 5 -27 9 -35 9 -9 0
-8 -4 5 -9z"/>
<path d="M3431 6855 c36 -20 81 -49 100 -65 32 -28 30 -27 -46 10 -44 22 -84
40 -90 40 -5 0 23 -17 63 -38 98 -50 174 -112 229 -186 57 -76 51 -54 -11 42
-63 97 -196 203 -286 226 -14 4 5 -9 41 -29z m154 -105 c3 -5 2 -10 -4 -10 -5
0 -13 5 -16 10 -3 6 -2 10 4 10 5 0 13 -4 16 -10z"/>
<path d="M3183 6873 c9 -2 25 -2 35 0 9 3 1 5 -18 5 -19 0 -27 -2 -17 -5z"/>
<path d="M3295 6860 c11 -5 27 -9 35 -9 9 0 8 4 -5 9 -11 5 -27 9 -35 9 -9 0
-8 -4 5 -9z"/>
<path d="M3163 6823 c9 -2 23 -2 30 0 6 3 -1 5 -18 5 -16 0 -22 -2 -12 -5z"/>
<path d="M3305 6804 c136 -39 284 -137 358 -239 50 -67 62 -64 18 4 -61 95
-220 202 -347 235 -76 20 -98 19 -29 0z"/>
<path d="M3195 6775 c122 -26 307 -96 292 -111 -3 -3 -19 2 -35 10 -47 24
-171 55 -234 57 -85 4 -81 -7 4 -13 85 -6 143 -25 252 -79 102 -52 142 -83
177 -139 16 -25 29 -40 29 -35 0 6 -7 22 -16 35 -10 14 9 0 41 -30 44 -42 54
-48 40 -25 -28 47 -63 82 -169 167 -146 117 -246 162 -378 172 l-73 5 70 -14z"/>
<path d="M1203 6699 c-43 -21 -113 -90 -113 -110 0 -7 10 0 21 15 12 15 24 25
27 22 3 -3 -3 -16 -14 -28 -19 -23 -19 -23 2 -5 11 9 24 15 27 12 4 -3 5 -2 2
2 -3 3 0 12 7 20 9 11 7 12 -8 7 -36 -14 17 36 66 62 56 29 41 32 -17 3z"/>
<path d="M3120 6672 c0 -5 27 -12 59 -16 33 -4 79 -13 103 -21 24 -8 32 -12
18 -9 -36 8 -216 18 -210 11 3 -3 43 -12 90 -22 130 -25 217 -53 303 -96 99
-49 152 -91 189 -148 15 -25 28 -38 28 -30 0 22 -58 99 -105 140 -107 94 -200
144 -316 172 -91 22 -159 30 -159 19z"/>
<path d="M3108 6573 c12 -2 30 -2 40 0 9 3 -1 5 -23 4 -22 0 -30 -2 -17 -4z"/>
<path d="M3091 6476 c2 -2 22 -6 44 -9 28 -5 34 -4 20 3 -19 8 -73 14 -64 6z"/>
<path d="M3220 6460 c14 -4 34 -8 45 -8 16 0 15 2 -5 8 -14 4 -34 8 -45 8 -16
0 -15 -2 5 -8z"/>
<path d="M1306 6435 c-3 -9 -6 -22 -5 -28 0 -7 5 -1 10 12 5 13 8 26 5 28 -2
2 -6 -3 -10 -12z"/>
<path d="M96 5083 c-6 -14 -5 -15 5 -6 7 7 10 15 7 18 -3 3 -9 -2 -12 -12z"/>
<path d="M11573 4083 c15 -2 37 -2 50 0 12 2 0 4 -28 4 -27 0 -38 -2 -22 -4z"/>
<path d="M11493 4043 c9 -2 25 -2 35 0 9 3 1 5 -18 5 -19 0 -27 -2 -17 -5z"/>
<path d="M11278 3713 c7 -3 16 -2 19 1 4 3 -2 6 -13 5 -11 0 -14 -3 -6 -6z"/>
<path d="M11358 3623 c7 -3 16 -2 19 1 4 3 -2 6 -13 5 -11 0 -14 -3 -6 -6z"/>
<path d="M12100 3060 c-8 -5 -10 -10 -5 -10 6 0 17 5 25 10 8 5 11 10 5 10 -5
0 -17 -5 -25 -10z"/>
<path d="M12110 3040 c-9 -6 -10 -10 -3 -10 6 0 15 5 18 10 8 12 4 12 -15 0z"/>
<path d="M12058 2983 c6 -2 18 -2 25 0 6 3 1 5 -13 5 -14 0 -19 -2 -12 -5z"/>
<path d="M11633 2803 c9 -2 23 -2 30 0 6 3 -1 5 -18 5 -16 0 -22 -2 -12 -5z"/>
<path d="M11688 2773 c6 -2 18 -2 25 0 6 3 1 5 -13 5 -14 0 -19 -2 -12 -5z"/>
<path d="M11448 2704 c-38 -20 -36 -28 2 -9 17 9 30 18 30 20 0 7 -1 6 -32
-11z"/>
<path d="M11527 2623 l33 -17 -33 -29 -32 -29 38 22 c21 12 44 19 52 16 27
-10 15 9 -21 32 -20 12 -43 22 -52 21 -10 0 -4 -7 15 -16z"/>
<path d="M11655 2590 c3 -5 11 -10 16 -10 6 0 7 5 4 10 -3 6 -11 10 -16 10 -6
0 -7 -4 -4 -10z"/>
<path d="M11488 2533 c12 -2 32 -2 45 0 12 2 2 4 -23 4 -25 0 -35 -2 -22 -4z"/>
<path d="M10400 2090 c20 -13 33 -13 25 0 -3 6 -14 10 -23 10 -15 0 -15 -2 -2
-10z"/>
</g>
</svg>
