 <svg version="1.0" xmlns="http://www.w3.org/2000/svg"
 width="1280.000000pt" height="875.000000pt" viewBox="0 0 1280.000000 875.000000"
 preserveAspectRatio="xMidYMid meet"><g transform="translate(0.000000,875.000000) scale(0.100000,-0.100000)"
fill="#000000" stroke="none">
<path d="M11263 8706 c-42 -48 -87 -132 -134 -248 -17 -43 -40 -89 -51 -103
-11 -14 -61 -47 -112 -72 -82 -41 -101 -47 -189 -54 -53 -5 -127 -16 -165 -24
-37 -9 -82 -15 -101 -15 -18 0 -42 -7 -52 -16 -25 -22 -24 -9 1 26 20 28 18
40 -7 40 -18 0 -113 -89 -113 -105 0 -17 -33 -45 -53 -45 -9 0 -17 -7 -17 -16
0 -9 -14 -38 -31 -65 l-32 -48 -26 18 c-26 18 -83 43 -171 74 -25 8 -61 21
-80 28 -19 6 -45 17 -58 22 -16 8 -26 7 -34 -1 -14 -14 14 -49 46 -56 11 -2 1
-3 -24 -3 -42 2 -45 1 -42 -23 3 -25 -29 -66 -79 -102 -21 -14 -23 -19 -11
-38 16 -26 15 -28 -23 -33 -22 -2 -31 -10 -33 -25 -3 -19 -10 -22 -57 -22 -31
0 -55 -5 -57 -11 -3 -9 -13 -9 -38 -1 -67 20 -110 24 -115 10 -4 -9 -19 -12
-45 -10 -22 2 -40 0 -40 -6 0 -5 15 -26 33 -46 27 -29 65 -106 52 -106 -1 0
-19 7 -39 15 -40 17 -58 13 -54 -13 2 -12 -3 -16 -15 -14 -10 2 -24 -2 -32 -8
-10 -8 -24 -4 -58 15 -25 14 -51 25 -56 25 -21 0 -11 -39 15 -59 l27 -21 -32
0 c-38 0 -39 -15 -3 -53 l27 -29 -45 4 c-44 3 -45 2 -42 -24 2 -24 -1 -28 -23
-28 -40 0 -29 -32 13 -41 80 -16 62 -49 -38 -68 -74 -15 -81 -37 -15 -47 25
-3 45 -10 45 -14 0 -5 -20 -20 -45 -34 -49 -29 -58 -53 -22 -58 38 -5 24 -31
-38 -69 -57 -34 -60 -39 -60 -75 0 -28 -10 -52 -33 -84 -28 -38 -31 -46 -18
-55 10 -8 12 -16 5 -26 -13 -21 -11 -39 7 -46 10 -4 31 9 60 38 24 23 46 40
50 37 7 -8 -45 -85 -77 -114 -13 -12 -37 -26 -53 -31 -38 -12 -44 -30 -14 -42
19 -8 14 -10 -28 -10 -59 -1 -67 -6 -52 -31 17 -27 -6 -51 -42 -44 -22 5 -29
2 -35 -15 -3 -12 -12 -21 -18 -21 -7 0 -24 -13 -38 -29 -24 -28 -107 -61 -152
-61 -12 0 -17 -6 -15 -17 2 -14 16 -19 53 -23 51 -5 52 -12 3 -24 -34 -8 -66
-52 -50 -68 9 -9 18 -8 38 1 35 15 40 9 18 -24 -20 -30 -41 -42 -150 -85 -44
-17 -167 -71 -274 -120 -217 -98 -285 -123 -410 -150 -155 -34 -295 -43 -603
-37 -356 6 -562 28 -907 97 -616 123 -963 146 -1315 85 -425 -72 -686 -180
-1095 -451 -131 -87 -168 -106 -235 -125 -140 -37 -237 -70 -286 -94 -55 -28
-165 -152 -210 -236 -17 -31 -59 -87 -93 -125 -35 -38 -72 -87 -84 -109 -11
-22 -52 -74 -90 -117 -44 -48 -88 -110 -118 -169 -31 -59 -72 -118 -112 -160
-34 -36 -62 -72 -62 -78 0 -10 -19 -21 -93 -50 -21 -8 -27 -16 -22 -30 4 -13
-2 -25 -20 -40 -43 -33 -62 -35 -110 -7 -24 14 -53 26 -64 26 -13 0 -35 20
-63 60 -39 56 -71 80 -86 65 -4 -3 1 -20 10 -36 10 -16 14 -37 11 -46 -5 -12
11 -33 58 -75 50 -46 57 -56 34 -47 -16 7 -44 23 -62 36 -17 13 -40 23 -51 23
-11 0 -44 20 -74 45 -101 83 -120 45 -31 -59 18 -22 33 -43 33 -48 0 -23 -43
-2 -89 42 -54 52 -71 56 -71 14 0 -20 -5 -24 -30 -24 -24 0 -44 14 -94 64 -36
35 -77 83 -92 105 -31 48 -50 48 -47 1 l1 -33 -24 27 c-14 14 -32 26 -40 26
-9 0 -27 9 -41 20 -47 37 -69 19 -37 -30 8 -14 -1 -7 -20 14 -20 22 -36 45
-36 53 0 7 -9 13 -19 13 -11 0 -42 26 -71 61 -38 43 -59 59 -74 57 -16 -2 -20
-9 -18 -28 2 -14 10 -32 18 -41 36 -40 -6 -40 -53 1 -40 35 -53 38 -53 10 0
-11 22 -42 49 -68 60 -57 141 -152 141 -165 0 -5 -23 10 -51 32 -29 23 -58 41
-65 41 -21 0 -25 -15 -9 -36 30 -40 13 -33 -50 21 -36 30 -72 55 -80 55 -19 0
-20 -40 -1 -65 12 -17 12 -21 -7 -34 -18 -13 -21 -13 -26 0 -8 25 -59 69 -80
69 -26 0 -28 -26 -3 -53 17 -20 17 -20 -16 -1 -18 10 -60 42 -93 72 -68 59
-94 63 -94 17 0 -17 -4 -36 -9 -43 -5 -9 -1 -24 13 -43 25 -34 25 -35 5 -43
-9 -3 -29 3 -45 15 -36 25 -65 21 -62 -9 2 -15 -2 -20 -12 -16 -8 4 -15 10
-15 15 0 10 -100 69 -118 69 -7 0 -15 -8 -19 -17 -3 -10 -13 -26 -21 -36 -14
-16 -13 -20 19 -47 42 -36 25 -38 -41 -5 -62 32 -82 32 -78 3 2 -14 18 -31 43
-45 30 -17 36 -23 23 -28 -9 -4 -33 -2 -55 4 -51 15 -53 14 -53 -10 0 -14 13
-26 45 -40 24 -11 46 -23 49 -27 2 -4 -73 -7 -167 -7 -189 0 -222 -11 -115
-38 35 -9 86 -26 113 -39 l50 -23 -53 -5 c-52 -5 -52 -5 -37 -27 8 -11 74 -50
147 -86 73 -36 142 -72 153 -80 34 -26 12 -27 -40 -3 -48 22 -56 22 -195 15
-80 -4 -155 -8 -168 -8 -16 -1 -22 -6 -20 -18 4 -23 78 -41 203 -50 55 -4 90
-9 78 -11 -30 -4 -30 -35 0 -55 21 -15 20 -15 -13 -5 -19 5 -53 13 -75 17 -22
5 -59 14 -82 21 -42 13 -73 9 -73 -10 0 -6 8 -13 18 -17 9 -3 38 -24 63 -45
26 -21 51 -38 55 -39 5 0 25 -19 44 -42 35 -40 30 -41 -21 -4 -29 20 -100 21
-106 0 -3 -7 11 -19 29 -28 91 -43 142 -75 121 -75 -13 0 -23 -3 -23 -8 0 -10
57 -72 67 -72 4 0 16 -14 25 -30 13 -23 14 -32 5 -34 -54 -16 -54 -16 -33 -32
23 -16 82 -19 91 -4 3 6 21 10 38 9 l32 -1 -33 -14 c-42 -18 -35 -30 25 -39
27 -3 66 -12 88 -20 22 -7 83 -16 135 -21 84 -7 90 -9 51 -14 -24 -4 -81 -2
-126 3 -45 6 -89 8 -98 4 -23 -9 -21 -37 2 -37 11 0 32 -5 48 -11 l28 -12 -25
-6 c-33 -9 -38 -37 -8 -44 13 -4 50 -9 81 -13 102 -12 71 -23 -46 -17 -126 7
-210 -2 -204 -20 2 -7 24 -14 49 -17 25 -3 53 -11 61 -19 10 -8 87 -17 219
-27 112 -8 237 -19 278 -25 89 -12 165 -8 320 19 154 27 164 30 241 63 90 39
165 55 184 39 30 -25 148 -9 223 29 21 11 55 23 77 27 21 4 68 26 104 49 90
58 126 75 155 75 16 0 50 19 88 51 35 27 86 65 113 83 28 19 59 44 70 56 11
12 28 26 38 32 17 9 18 8 2 -15 -11 -18 -13 -27 -5 -32 8 -5 5 -14 -9 -29 -24
-25 -19 -36 16 -36 17 0 23 -6 23 -21 0 -19 4 -21 33 -15 17 3 44 15 59 26 33
24 38 25 38 5 0 -22 25 -18 57 9 61 51 146 98 180 100 24 1 59 18 120 61 100
70 310 259 358 322 59 77 125 256 125 339 0 59 11 61 34 7 28 -64 186 -364
254 -483 77 -134 139 -223 231 -334 45 -54 84 -109 87 -123 10 -37 -10 -112
-53 -201 -69 -141 -285 -334 -542 -482 -88 -51 -144 -100 -161 -140 -22 -52
18 -164 94 -263 20 -26 64 -95 99 -154 162 -274 199 -337 275 -461 143 -233
245 -443 273 -557 6 -27 20 -73 31 -100 17 -48 18 -53 3 -89 -21 -50 -12 -88
32 -131 40 -39 39 -67 -5 -83 -15 -5 -49 -18 -76 -27 -42 -15 -51 -24 -68 -63
-26 -58 -35 -194 -19 -286 12 -70 74 -224 111 -276 15 -21 30 -30 49 -30 25 0
42 18 131 137 112 151 112 151 165 303 38 109 71 194 132 339 61 146 56 172
-96 418 -44 72 -105 182 -137 245 -31 62 -74 143 -95 179 -140 242 -211 422
-194 498 8 36 93 171 139 220 40 42 117 95 231 156 104 56 190 112 256 167 26
21 50 38 53 38 13 0 -86 -179 -160 -291 -40 -61 -76 -127 -80 -145 -16 -85 9
-117 206 -274 357 -284 793 -685 951 -872 92 -110 108 -136 124 -190 25 -91
110 -172 129 -123 8 22 24 18 51 -11 31 -34 32 -74 1 -111 -36 -44 -46 -68
-46 -116 0 -69 49 -156 123 -218 77 -64 157 -119 222 -151 74 -37 99 -41 126
-19 l22 18 -12 179 c-6 98 -17 193 -22 209 -6 17 -26 80 -44 140 -18 61 -42
135 -53 165 -11 30 -28 93 -37 140 -8 47 -20 102 -26 122 -10 39 -15 44 -339
334 -395 353 -510 474 -561 589 -25 56 -22 115 12 236 50 180 102 280 224 430
70 86 140 220 223 425 27 67 71 154 98 193 73 106 82 127 106 234 12 53 27 97
33 97 6 0 40 -12 76 -26 166 -68 429 -154 627 -205 642 -165 645 -166 1131
-179 214 -6 399 -14 410 -18 34 -12 156 -183 184 -258 36 -93 44 -135 62 -315
9 -85 25 -210 36 -279 56 -352 71 -474 76 -640 4 -121 2 -194 -7 -235 -12 -56
-18 -66 -99 -146 -94 -94 -360 -296 -401 -305 -49 -11 -77 -25 -129 -68 -51
-42 -106 -66 -149 -66 -37 0 -72 -22 -78 -49 -13 -60 -27 -93 -41 -98 -9 -4
-44 8 -79 26 -90 46 -120 53 -158 37 -75 -31 -158 -166 -177 -288 -13 -82 -7
-268 10 -311 22 -57 70 -53 156 13 27 21 75 51 105 67 30 16 78 46 105 67 68
52 227 129 311 150 143 36 140 35 364 251 257 249 366 342 462 391 107 56 166
121 233 257 37 74 59 132 64 172 5 33 12 204 16 380 4 221 12 368 26 475 10
85 25 224 33 308 16 170 28 202 103 275 l39 37 76 -47 c43 -27 145 -112 235
-195 87 -81 233 -208 325 -281 92 -74 186 -151 209 -172 41 -37 68 -88 69
-131 0 -11 9 -53 19 -93 12 -44 17 -88 14 -109 -7 -42 -99 -224 -174 -343
-109 -175 -255 -345 -331 -386 l-53 -28 -3 -77 c-3 -73 -5 -78 -43 -121 l-40
-46 -88 6 c-130 8 -156 1 -191 -53 -55 -88 -63 -257 -19 -415 34 -123 73 -179
125 -179 32 0 67 32 128 120 31 44 69 89 85 101 16 12 41 43 55 68 14 26 49
70 78 97 61 58 206 168 252 191 56 28 85 65 127 162 81 189 270 562 330 650
33 50 75 103 94 117 60 45 70 91 70 314 -1 188 -1 197 -26 250 -15 30 -55 89
-89 130 -95 112 -235 304 -292 400 -28 47 -79 130 -114 185 -35 55 -83 151
-108 213 -25 62 -50 120 -55 129 -6 12 4 32 43 78 88 102 130 165 252 367 139
231 170 290 189 365 21 81 19 162 -10 329 -14 80 -25 158 -25 174 0 16 24 96
54 177 71 196 83 235 166 526 85 298 113 417 145 628 27 175 41 213 113 297
40 47 48 52 86 52 22 0 66 7 96 15 30 8 82 15 115 15 55 0 73 -6 190 -66 96
-48 142 -79 177 -115 l48 -49 69 0 c74 0 62 5 256 -101 78 -44 79 -45 101
-106 39 -114 101 -166 212 -180 75 -9 129 12 187 70 28 29 68 65 88 80 53 40
86 95 97 161 6 35 22 77 41 107 17 27 33 66 36 88 8 57 -28 155 -79 218 -24
29 -90 109 -148 179 -58 70 -136 166 -174 213 -37 47 -94 113 -126 146 -71 74
-173 198 -274 333 -85 113 -251 311 -371 442 -42 47 -83 99 -91 116 -7 18 -25
46 -40 63 l-26 32 20 47 c20 47 26 74 58 267 28 175 29 198 9 193 -11 -2 -36
-39 -66 -98 -27 -52 -67 -115 -90 -140 -42 -45 -42 -45 -50 -20 -4 14 -7 82
-8 153 -1 118 -2 127 -20 127 -11 0 -37 -20 -58 -44z"/>
</g>
</svg>
